<svg width="119" height="37" viewBox="0 0 119 37" fill="none" xmlns="http://www.w3.org/2000/svg">
<g clip-path="url(#clip0_4893_10)">
<path d="M25.1533 22.0663C24.3365 20.8768 23.1631 19.9022 21.0241 19.0567C19.5623 18.4798 18.7006 18.2362 16.9898 17.7472C15.4385 17.3047 13.0039 16.9285 10.5551 15.5491C10.0391 15.2571 9.29926 14.5351 9.29926 13.6161C9.29926 13.1414 9.28673 12.02 11.0943 11.1099C12.2085 10.551 13.9462 10.259 15.4618 10.1981C15.8182 10.1856 16.1676 10.1784 16.5097 10.1784C19.9887 10.182 22.8532 10.8018 24.6714 11.3321V6.67617C24.6714 4.96358 23.3852 4.5623 23.0645 4.48706C19.7092 3.88693 15.2737 3.54835 11.3863 4.03562C9.09325 4.32404 6.93817 4.80414 5.10555 5.67298C3.26576 6.54361 1.92936 7.70445 1.08381 9.19491C0.515929 10.1945 0.152271 11.3607 0.0394113 12.7939C0.0107485 13.1378 0 13.4692 0 13.7881C0 15.4022 0.320664 16.649 0.833011 17.6791C1.34536 18.7091 2.06551 19.6389 2.9433 20.3411C4.69531 21.742 6.75366 22.5876 8.8532 23.134C10.616 23.5908 14.1486 24.5563 15.1447 25.1009C16.1371 25.6419 16.5921 26.1883 16.7175 26.9156C16.9737 28.4079 16.0332 29.2355 15.4152 29.6332C14.2973 30.3552 12.7639 30.6776 9.90297 30.5594C6.20906 30.4071 2.49366 29.7891 0.347536 29.0743V35.6882C0.918999 35.8262 1.71439 35.9981 2.72833 36.1701C5.08226 36.5714 8.12051 37.1052 12.7782 36.9763C17.3481 36.8491 20.956 35.8369 23.2276 34.1494C25.4991 32.4493 26.3249 30.3946 26.4844 27.9045C26.5059 27.5444 26.5166 27.1969 26.5166 26.8655C26.5094 24.6674 25.9666 23.254 25.1515 22.0645L25.1533 22.0663Z" fill="#3B4951"/>
<path d="M40.8958 31.2568C39.6794 30.8322 38.6941 30.2608 37.9614 29.0265C37.2287 27.7904 37.3882 26.3071 37.3882 26.3071H50.7271C51.2771 26.2892 52.9915 26.0617 52.8284 23.9998C52.7281 22.6831 52.5024 21.1926 52.0259 19.7631C51.2878 17.5668 50.2452 16.0315 48.0221 14.602C46.2073 13.4358 43.4772 12.7998 41.1179 12.7998C38.4344 12.7998 35.9497 13.4626 34.2424 14.2491C32.5352 15.0355 31.403 16.0387 30.5969 17.153C28.9918 19.36 28.6568 22.2191 28.6622 24.693C28.6622 25.1821 28.6729 25.6515 28.689 26.0975C28.7571 28.1308 29.4307 30.6639 31.0698 32.7186C32.7162 34.768 35.3137 36.4627 39.6436 36.8496C40.8707 36.9571 42.028 37.0001 43.1082 37.0001C47.3127 37.0001 49.6128 36.3176 51.0728 35.8966V30.9576C49.6003 31.4162 48.1188 31.8569 45.0895 31.8534C43.5256 31.8498 42.1283 31.6885 40.8994 31.255L40.8958 31.2568ZM37.6587 20.2808C37.8307 19.6377 38.1298 18.8691 38.8786 18.2386C39.3731 17.8212 40.1022 17.5112 40.9173 17.4665C41.0194 17.4611 41.1233 17.4575 41.2254 17.4575C41.9975 17.4503 42.7212 17.6671 43.2515 18.0254C43.7853 18.3783 44.1221 18.8333 44.3425 19.2722C44.7778 20.1518 44.7115 22.2388 44.7115 22.2388H37.5279C37.5279 22.2388 37.4939 20.9257 37.6587 20.2826V20.2808Z" fill="#3B4951"/>
<path d="M76.9983 4.47363H66.8069L66.8141 4.4808C66.7586 4.47542 66.7048 4.47542 66.6511 4.47363H66.3895C64.5874 4.53275 63.8045 5.75808 63.5036 6.46569L63.3388 6.94938L53.3193 36.3806H62.7458L64.8471 28.7743H75.8769L78.1233 36.3806H88.0407L77.0001 4.47363H76.9983ZM66.085 22.8948L69.8667 11.2918L69.8864 11.2327C69.933 11.1126 70.0781 10.8332 70.4686 10.8332C70.8591 10.8332 70.9881 11.0858 71.0401 11.2147L74.7967 22.8948H66.0832H66.085Z" fill="#3B4951"/>
<path d="M111.558 4.47363C109.177 4.47363 108.901 6.28297 108.874 6.90101V16.6123H99.4548V4.47363H92.6062C90.2254 4.47363 89.9478 6.28297 89.9209 6.90101V36.3806H99.4548V23.7386H108.874V36.3806H118.406V4.47363H111.558Z" fill="#3B4951"/>
<path d="M30.0801 4.08086L39.6749 9.44258C40.1138 9.688 40.6154 9.82773 41.1493 9.82773C41.6831 9.82773 42.1865 9.688 42.6254 9.44079L51.0845 4.64157C51.6506 4.30299 51.8423 3.55597 51.518 2.97197L49.8448 0L42.6272 4.06115C42.1883 4.30658 41.6849 4.4481 41.1511 4.4481C40.6172 4.4481 40.1156 4.30837 39.6767 4.06294L33.4372 0.56788C32.8729 0.234676 32.1492 0.433524 31.8213 1.01574L30.0801 4.08265V4.08086Z" fill="#E54E2B"/>
</g>
<defs>
<clipPath id="clip0_4893_10">
<rect width="118.409" height="37" fill="white"/>
</clipPath>
</defs>
</svg>
