<svg width="43" height="41" viewBox="0 0 43 41" fill="none" xmlns="http://www.w3.org/2000/svg">
<path d="M3.768 39.064C4.32 39.064 4.72 38.968 4.968 38.776C5.216 38.576 5.34 38.328 5.34 38.032V37.9C5.34 37.548 5.208 37.288 4.944 37.12C4.688 36.944 4.312 36.8 3.816 36.688C3.456 36.608 3.092 36.524 2.724 36.436C2.364 36.348 2.036 36.216 1.74 36.04C1.452 35.864 1.216 35.628 1.032 35.332C0.848 35.028 0.756 34.624 0.756 34.12V33.964C0.756 33.7 0.808 33.428 0.912 33.148C1.016 32.86 1.188 32.596 1.428 32.356C1.668 32.116 1.984 31.92 2.376 31.768C2.776 31.608 3.268 31.528 3.852 31.528C4.332 31.528 4.792 31.58 5.232 31.684C5.672 31.78 6.112 31.968 6.552 32.248L5.832 33.436C5.48 33.212 5.152 33.068 4.848 33.004C4.544 32.932 4.22 32.896 3.876 32.896C3.604 32.896 3.368 32.928 3.168 32.992C2.968 33.056 2.8 33.14 2.664 33.244C2.536 33.348 2.44 33.46 2.376 33.58C2.312 33.7 2.28 33.82 2.28 33.94V34.084C2.28 34.292 2.328 34.46 2.424 34.588C2.528 34.716 2.664 34.824 2.832 34.912C3 34.992 3.196 35.06 3.42 35.116C3.652 35.164 3.896 35.216 4.152 35.272C4.664 35.384 5.092 35.524 5.436 35.692C5.788 35.852 6.068 36.036 6.276 36.244C6.492 36.452 6.644 36.684 6.732 36.94C6.828 37.188 6.876 37.46 6.876 37.756V37.912C6.876 38.392 6.788 38.796 6.612 39.124C6.444 39.444 6.212 39.704 5.916 39.904C5.62 40.096 5.28 40.232 4.896 40.312C4.512 40.4 4.112 40.444 3.696 40.444C3.384 40.444 3.076 40.416 2.772 40.36C2.476 40.312 2.196 40.244 1.932 40.156C1.668 40.068 1.42 39.964 1.188 39.844C0.964 39.716 0.768 39.584 0.6 39.448L1.344 38.224C1.608 38.448 1.948 38.644 2.364 38.812C2.78 38.98 3.248 39.064 3.768 39.064ZM11.3037 31.528C11.9117 31.528 12.4477 31.6 12.9117 31.744C13.3837 31.888 13.8397 32.136 14.2797 32.488L13.4517 33.664C13.0997 33.368 12.7517 33.176 12.4077 33.088C12.0637 32.992 11.6957 32.944 11.3037 32.944C11.0477 32.944 10.7957 32.984 10.5477 33.064C10.2997 33.136 10.0797 33.272 9.88772 33.472C9.69572 33.672 9.53972 33.944 9.41972 34.288C9.29972 34.632 9.23972 35.072 9.23972 35.608V36.496C9.23972 36.952 9.29572 37.34 9.40772 37.66C9.51972 37.98 9.66772 38.24 9.85172 38.44C10.0437 38.64 10.2637 38.788 10.5117 38.884C10.7597 38.972 11.0197 39.016 11.2917 39.016C11.6917 39.016 12.0997 38.956 12.5157 38.836C12.9397 38.708 13.3237 38.468 13.6677 38.116L14.4837 39.292C14.2277 39.548 13.9557 39.752 13.6677 39.904C13.3877 40.048 13.1077 40.16 12.8277 40.24C12.5477 40.328 12.2717 40.384 11.9997 40.408C11.7277 40.432 11.4717 40.444 11.2317 40.444C10.7597 40.444 10.3077 40.376 9.87572 40.24C9.45172 40.104 9.07572 39.888 8.74772 39.592C8.42772 39.296 8.17172 38.92 7.97972 38.464C7.78772 38.008 7.69172 37.456 7.69172 36.808V35.26C7.69172 34.612 7.78372 34.056 7.96772 33.592C8.15972 33.12 8.41972 32.732 8.74772 32.428C9.07572 32.116 9.45572 31.888 9.88772 31.744C10.3277 31.6 10.7997 31.528 11.3037 31.528ZM18.7222 36.844H16.9582V40.312H15.4222V31.66H18.6982C19.1462 31.66 19.5422 31.72 19.8862 31.84C20.2382 31.96 20.5302 32.124 20.7622 32.332C21.0022 32.54 21.1822 32.792 21.3022 33.088C21.4302 33.376 21.4942 33.692 21.4942 34.036V34.48C21.4942 34.936 21.3822 35.348 21.1582 35.716C20.9342 36.076 20.5982 36.356 20.1502 36.556C20.4382 37.188 20.7182 37.816 20.9902 38.44C21.2702 39.056 21.5542 39.68 21.8422 40.312H20.1742L18.7222 36.844ZM16.9582 32.944V35.56H18.3742C18.9662 35.56 19.3782 35.456 19.6102 35.248C19.8502 35.04 19.9702 34.772 19.9702 34.444V34.084C19.9702 33.748 19.8582 33.476 19.6342 33.268C19.4102 33.052 19.0342 32.944 18.5062 32.944H16.9582ZM26.212 31.528C26.7 31.528 27.164 31.6 27.604 31.744C28.052 31.88 28.444 32.1 28.78 32.404C29.116 32.7 29.38 33.084 29.572 33.556C29.772 34.028 29.872 34.6 29.872 35.272V36.7C29.872 37.38 29.772 37.96 29.572 38.44C29.38 38.912 29.116 39.296 28.78 39.592C28.452 39.888 28.064 40.104 27.616 40.24C27.176 40.376 26.708 40.444 26.212 40.444C25.716 40.444 25.244 40.376 24.796 40.24C24.356 40.104 23.968 39.888 23.632 39.592C23.304 39.296 23.04 38.912 22.84 38.44C22.648 37.96 22.552 37.38 22.552 36.7V35.272C22.552 34.6 22.648 34.028 22.84 33.556C23.04 33.084 23.308 32.7 23.644 32.404C23.98 32.1 24.368 31.88 24.808 31.744C25.256 31.6 25.724 31.528 26.212 31.528ZM26.212 39.04C26.508 39.04 26.784 39.004 27.04 38.932C27.296 38.852 27.52 38.716 27.712 38.524C27.904 38.332 28.052 38.072 28.156 37.744C28.268 37.416 28.324 37.004 28.324 36.508V35.464C28.324 34.968 28.268 34.556 28.156 34.228C28.052 33.9 27.904 33.64 27.712 33.448C27.52 33.256 27.296 33.124 27.04 33.052C26.784 32.972 26.508 32.932 26.212 32.932C25.924 32.932 25.652 32.972 25.396 33.052C25.14 33.124 24.916 33.256 24.724 33.448C24.532 33.64 24.38 33.9 24.268 34.228C24.156 34.556 24.1 34.968 24.1 35.464V36.508C24.1 37.004 24.156 37.416 24.268 37.744C24.38 38.072 24.532 38.332 24.724 38.524C24.916 38.716 25.14 38.852 25.396 38.932C25.652 39.004 25.924 39.04 26.212 39.04ZM32.5567 31.66V39.016H36.5048V40.312H31.0207V31.66H32.5567ZM38.7682 31.66V39.016H42.7162V40.312H37.2322V31.66H38.7682Z" fill="white"/>
<rect x="14.5" y="0.5" width="13.4" height="23" rx="6.7" stroke="white"/>
<path d="M21 10V14" stroke="white" stroke-linecap="round"/>
</svg>
