<svg width="25" height="80" viewBox="0 0 25 80" fill="none" xmlns="http://www.w3.org/2000/svg">
<g clip-path="url(#clip0_827_16121)">
<path d="M10.0865 16.9942C10.8902 16.4423 11.5486 15.6495 12.1199 14.2044C12.5096 13.2167 12.6742 12.6346 13.0046 11.4787C13.3036 10.4306 13.5577 8.78574 14.4897 7.13123C14.687 6.78266 15.1747 6.28279 15.7956 6.28279C16.1164 6.28279 16.874 6.27432 17.4889 7.49554C17.8665 8.24836 18.0638 9.42237 18.1049 10.4463C18.1134 10.6872 18.1182 10.9232 18.1182 11.1543C18.1158 13.5048 17.697 15.4401 17.3388 16.6686L20.4844 16.6686C21.6415 16.6686 21.9126 15.7996 21.9634 15.5829C22.3689 13.316 22.5976 10.3192 22.2684 7.69282C22.0736 6.14361 21.7492 4.68759 21.1622 3.44942C20.574 2.20642 19.7897 1.30352 18.7827 0.732246C18.1073 0.348573 17.3194 0.102877 16.3512 0.0266269C16.1188 0.00726167 15.8949 -2.85475e-07 15.6794 -2.94892e-07C14.5889 -3.4256e-07 13.7465 0.216648 13.0506 0.5628C12.3547 0.908953 11.7265 1.3955 11.2521 1.98856C10.3056 3.17226 9.73432 4.56292 9.36517 5.98142C9.05654 7.17238 8.40418 9.55914 8.03624 10.2321C7.67072 10.9026 7.30157 11.21 6.81018 11.2947C5.80198 11.4678 5.24281 10.8324 4.97412 10.4148C4.48636 9.6596 4.2685 8.62356 4.34838 6.69067C4.45126 4.19498 4.86882 1.68477 5.35174 0.234802L0.883223 0.234802C0.790028 0.620895 0.673836 1.15828 0.557644 1.84332C0.286531 3.43369 -0.0741446 5.4864 0.0129982 8.63324C0.0989318 11.7208 0.782764 14.1584 1.92289 15.6931C3.07149 17.2278 4.45973 17.7857 6.14208 17.8934C6.38535 17.908 6.62016 17.9152 6.84407 17.9152C8.32914 17.9104 9.28408 17.5436 10.0877 16.9929L10.0865 16.9942Z" fill="white"/>
<path d="M3.87769 27.6325C4.16453 26.8107 4.55063 26.145 5.38454 25.65C6.21966 25.155 7.22181 25.2627 7.22181 25.2627L7.22181 34.2748C7.23391 34.6464 7.38762 35.8046 8.78071 35.6945C9.6703 35.6267 10.6773 35.4742 11.6431 35.1523C13.127 34.6536 14.1642 33.9492 15.1301 32.4472C15.918 31.2211 16.3477 29.3766 16.3477 27.7826C16.3477 25.9695 15.8998 24.2908 15.3685 23.1374C14.8372 21.984 14.1594 21.219 13.4066 20.6744C11.9154 19.5899 9.98377 19.3636 8.31231 19.3672C7.9819 19.3672 7.66479 19.3745 7.36342 19.3854C5.9897 19.4314 4.2783 19.8865 2.89006 20.9939C1.50545 22.1062 0.360483 23.8612 0.0990521 26.7865C0.0264336 27.6156 -0.00261346 28.3975 -0.00261349 29.1273C-0.00261362 31.9679 0.458518 33.522 0.742944 34.5084L4.07981 34.5084C3.76997 33.5135 3.47223 32.5126 3.47465 30.4659C3.47707 29.4093 3.586 28.4652 3.8789 27.635L3.87769 27.6325ZM11.2933 25.4455C11.7278 25.5617 12.2471 25.7638 12.6731 26.2697C12.9551 26.6038 13.1645 27.0964 13.1948 27.6471C13.1984 27.716 13.2008 27.7862 13.2008 27.8552C13.2057 28.3769 13.0592 28.8659 12.8171 29.2241C12.5787 29.5848 12.2713 29.8123 11.9748 29.9612C11.3805 30.2553 9.97046 30.2105 9.97046 30.2105L9.97046 25.3571C9.97046 25.3571 10.8576 25.3341 11.2921 25.4455L11.2933 25.4455Z" fill="white"/>
<path d="M21.9766 52.0215L21.9766 45.136L21.9717 45.1408C21.9754 45.1033 21.9754 45.067 21.9766 45.0307L21.9766 44.854C21.9366 43.6364 21.1088 43.1075 20.6307 42.9041L20.3039 42.7928L0.419479 36.0234L0.419479 42.3922L5.55852 43.8119L5.55852 51.2638L0.419479 52.7816L0.419478 59.4819L21.9766 52.0227L21.9766 52.0215ZM9.5308 44.6482L17.3701 47.2032L17.41 47.2165C17.4911 47.248 17.6799 47.346 17.6799 47.6099C17.6799 47.8737 17.5093 47.9609 17.4221 47.996L9.5308 50.534L9.5308 44.647L9.5308 44.6482Z" fill="white"/>
<path d="M21.9727 75.3683C21.9727 73.7598 20.7502 73.5734 20.3327 73.5552L13.7715 73.5552L13.7715 67.1913L21.9727 67.1913L21.9727 62.5643C21.9727 60.9558 20.7502 60.7682 20.3327 60.75L0.415573 60.75L0.415573 67.1913L8.95683 67.1913L8.95683 73.5552L0.415573 73.5552L0.415572 79.9954L21.9727 79.9954L21.9727 75.3683Z" fill="white"/>
<path d="M22.239 20.3203L18.6165 26.8028C18.4507 27.0993 18.3563 27.4382 18.3563 27.7989C18.3563 28.1596 18.4507 28.4997 18.6177 28.7962L21.8601 34.5114C22.0889 34.8938 22.5936 35.0233 22.9882 34.8043L24.9961 33.6738L22.2523 28.7974C22.0865 28.5009 21.9909 28.1608 21.9909 27.8001C21.9909 27.4394 22.0853 27.1005 22.2511 26.804L24.6124 22.5885C24.8375 22.2072 24.7032 21.7182 24.3098 21.4967L22.2378 20.3203L22.239 20.3203Z" fill="white"/>
</g>
<defs>
<clipPath id="clip0_827_16121">
<rect width="80" height="24.998" fill="white" transform="translate(24.9961) rotate(90)"/>
</clipPath>
</defs>
</svg>
