<svg width="120" height="38" viewBox="0 0 120 38" fill="none" xmlns="http://www.w3.org/2000/svg">
<g clip-path="url(#clip0_4761_68)">
<path d="M25.4912 22.3634C24.6634 21.1579 23.4742 20.1703 21.3065 19.3134C19.8251 18.7288 18.9519 18.4819 17.2181 17.9862C15.6459 17.5378 13.1786 17.1566 10.6968 15.7586C10.174 15.4627 9.42419 14.7311 9.42419 13.7997C9.42419 13.3186 9.41148 12.1821 11.2433 11.2599C12.3725 10.6934 14.1336 10.3975 15.6695 10.3358C16.0307 10.3231 16.3848 10.3158 16.7315 10.3158C20.2572 10.3194 23.1602 10.9476 25.0029 11.485V6.76653C25.0029 5.03093 23.6994 4.62426 23.3744 4.54801C19.974 3.93982 15.4788 3.59669 11.5392 4.09051C9.21541 4.3828 7.03138 4.86935 5.17414 5.74986C3.30963 6.63219 1.95528 7.80862 1.09837 9.31911C0.52286 10.3321 0.154316 11.514 0.0399407 12.9664C0.0108929 13.315 0 13.6509 0 13.974C0 15.6098 0.324972 16.8733 0.844201 17.9172C1.36343 18.9612 2.09326 19.9034 2.98284 20.6151C4.75839 22.0348 6.84438 22.8917 8.97213 23.4454C10.7586 23.9084 14.3387 24.8869 15.3481 25.4388C16.3539 25.9871 16.815 26.5408 16.9421 27.2779C17.2017 28.7902 16.2486 29.6289 15.6223 30.032C14.4894 30.7636 12.9353 31.0904 10.036 30.9706C6.29247 30.8163 2.52716 30.1899 0.352204 29.4656V36.1683C0.931344 36.3081 1.73742 36.4824 2.76499 36.6567C5.15053 37.0634 8.2296 37.6044 12.9499 37.4737C17.5812 37.3448 21.2376 36.319 23.5396 34.6088C25.8416 32.8859 26.6786 30.8036 26.8401 28.28C26.8619 27.9151 26.8728 27.5629 26.8728 27.2271C26.8656 24.9995 26.3155 23.567 25.4894 22.3616L25.4912 22.3634Z" fill="white"/>
<path d="M41.4449 31.6766C40.2122 31.2464 39.2137 30.6672 38.4711 29.4164C37.7286 28.1637 37.8902 26.6604 37.8902 26.6604H51.4083C51.9656 26.6423 53.7031 26.4117 53.5378 24.3221C53.4362 22.9877 53.2074 21.4772 52.7245 20.0285C51.9765 17.8027 50.9199 16.2468 48.6669 14.7981C46.8278 13.6162 44.061 12.9717 41.67 12.9717C38.9504 12.9717 36.4323 13.6434 34.7022 14.4404C32.972 15.2374 31.8246 16.2541 31.0077 17.3833C29.381 19.62 29.0415 22.5175 29.0469 25.0247C29.0469 25.5203 29.0578 25.996 29.0742 26.448C29.1432 28.5086 29.8258 31.0757 31.487 33.1581C33.1554 35.235 35.7878 36.9524 40.1759 37.3446C41.4195 37.4535 42.5923 37.4971 43.687 37.4971C47.948 37.4971 50.2791 36.8054 51.7587 36.3787V31.3734C50.2663 31.8382 48.7649 32.2848 45.6949 32.2812C44.11 32.2776 42.6939 32.1142 41.4485 31.6748L41.4449 31.6766ZM38.1643 20.5532C38.3386 19.9014 38.6418 19.1225 39.4007 18.4835C39.9017 18.0605 40.6406 17.7464 41.4667 17.701C41.5702 17.6956 41.6755 17.6919 41.7789 17.6919C42.5614 17.6847 43.2949 17.9044 43.8323 18.2675C44.3733 18.6251 44.7146 19.0862 44.9379 19.531C45.3791 20.4224 45.3119 22.5375 45.3119 22.5375H38.0318C38.0318 22.5375 37.9973 21.2067 38.1643 20.555V20.5532Z" fill="white"/>
<path d="M78.0323 4.5332H67.704L67.7112 4.54047C67.6549 4.53502 67.6005 4.53502 67.546 4.5332H67.2809C65.4546 4.59311 64.6612 5.83491 64.3562 6.55202L64.1892 7.04221L54.0352 36.8688H63.5882L65.7178 29.1603H76.8958L79.1724 36.8688H89.2229L78.0341 4.5332H78.0323ZM66.9723 23.2018L70.8048 11.4429L70.8248 11.383C70.872 11.2614 71.019 10.9782 71.4148 10.9782C71.8106 10.9782 71.9413 11.2342 71.9939 11.3649L75.801 23.2018H66.9705H66.9723Z" fill="white"/>
<path d="M113.056 4.5332C110.644 4.5332 110.364 6.36684 110.337 6.99319V16.8349H100.791V4.5332H93.8503C91.4375 4.5332 91.1561 6.36684 91.1289 6.99319V36.8688H100.791V24.0569H110.337V36.8688H119.997V4.5332H113.056Z" fill="white"/>
<path d="M30.4844 4.13568L40.2081 9.56943C40.6529 9.81815 41.1613 9.95976 41.7023 9.95976C42.2433 9.95976 42.7534 9.81815 43.1982 9.56761L51.771 4.70392C52.3446 4.3608 52.5389 3.60374 52.2103 3.01189L50.5146 0L43.2 4.11571C42.7552 4.36443 42.2451 4.50785 41.7041 4.50785C41.1631 4.50785 40.6547 4.36624 40.2099 4.11752L33.8866 0.575509C33.3147 0.237829 32.5813 0.439348 32.249 1.02938L30.4844 4.13749V4.13568Z" fill="#E54E2B"/>
</g>
<defs>
<clipPath id="clip0_4761_68">
<rect width="120" height="37.497" fill="white"/>
</clipPath>
</defs>
</svg>
