<svg width="12" height="12" viewBox="0 0 12 12" fill="none" xmlns="http://www.w3.org/2000/svg">
<g clip-path="url(#clip0_5036_582)">
<path d="M0.292893 10.2929C-0.0976311 10.6834 -0.0976311 11.3166 0.292893 11.7071C0.683418 12.0976 1.31658 12.0976 1.70711 11.7071L0.292893 10.2929ZM11.8995 1.10051C11.8995 0.54822 11.4518 0.100505 10.8995 0.100505L1.89949 0.100506C1.34721 0.100505 0.899495 0.54822 0.899495 1.10051C0.899495 1.65279 1.34721 2.10051 1.89949 2.10051L9.8995 2.1005L9.89949 10.1005C9.89949 10.6528 10.3472 11.1005 10.8995 11.1005C11.4518 11.1005 11.8995 10.6528 11.8995 10.1005L11.8995 1.10051ZM1.70711 11.7071L11.6066 1.80761L10.1924 0.393398L0.292893 10.2929L1.70711 11.7071Z" fill="#3B4951"/>
</g>
<defs>
<clipPath id="clip0_5036_582">
<rect width="12" height="12" fill="white"/>
</clipPath>
</defs>
</svg>
