<svg width="18" height="18" viewBox="0 0 18 18" fill="none" xmlns="http://www.w3.org/2000/svg">
<path d="M8.4375 11.8477V3.375C8.4375 3.05859 8.68359 2.8125 9 2.8125C9.31641 2.8125 9.5625 3.05859 9.5625 3.375V11.8477H8.4375ZM8.4375 12.9551H9.5625V14.0098H8.4375V12.9551ZM0 9C0 4.02539 4.02539 0 9 0C13.9746 0 18 4.02539 18 9C18 13.9746 13.9746 18 9 18C4.02539 18 0 13.9746 0 9ZM16.8926 9C16.8926 4.6582 13.3418 1.125 9 1.125C4.6582 1.125 1.125 4.6582 1.125 9C1.125 13.3418 4.6582 16.875 9 16.875C13.3418 16.875 16.8926 13.3418 16.8926 9Z" fill="#3B4951"/>
</svg>
