<svg width="120" height="38" viewBox="0 0 120 38" fill="none" xmlns="http://www.w3.org/2000/svg">
<g clip-path="url(#clip0_4396_2280)">
<path d="M25.4912 22.3604C24.6634 21.155 23.4742 20.1673 21.3065 19.3104C19.8251 18.7258 18.9519 18.4789 17.2181 17.9833C15.6459 17.5349 13.1786 17.1536 10.6968 15.7557C10.174 15.4598 9.42419 14.7281 9.42419 13.7968C9.42419 13.3157 9.41148 12.1792 11.2433 11.2569C12.3725 10.6905 14.1336 10.3946 15.6695 10.3328C16.0307 10.3201 16.3848 10.3129 16.7315 10.3129C20.2572 10.3165 23.1602 10.9447 25.0029 11.4821V6.7636C25.0029 5.028 23.6994 4.62133 23.3744 4.54508C19.974 3.93689 15.4788 3.59376 11.5392 4.08758C9.21541 4.37987 7.03138 4.86642 5.17414 5.74693C3.30963 6.62926 1.95528 7.80569 1.09837 9.31618C0.52286 10.3292 0.154316 11.5111 0.0399407 12.9635C0.0108929 13.3121 0 13.6479 0 13.9711C0 15.6068 0.324972 16.8704 0.844201 17.9143C1.36343 18.9582 2.09326 19.9005 2.98284 20.6121C4.75839 22.0318 6.84438 22.8888 8.97213 23.4425C10.7586 23.9054 14.3387 24.884 15.3481 25.4359C16.3539 25.9842 16.815 26.5379 16.9421 27.275C17.2017 28.7873 16.2486 29.626 15.6223 30.0291C14.4894 30.7607 12.9353 31.0875 10.036 30.9677C6.29247 30.8133 2.52716 30.187 0.352204 29.4626V36.1654C0.931344 36.3052 1.73742 36.4795 2.76499 36.6538C5.15053 37.0604 8.2296 37.6015 12.9499 37.4707C17.5812 37.3418 21.2376 36.3161 23.5396 34.6059C25.8416 32.883 26.6786 30.8006 26.8401 28.2771C26.8619 27.9122 26.8728 27.56 26.8728 27.2241C26.8656 24.9965 26.3155 23.5641 25.4894 22.3586L25.4912 22.3604Z" fill="white"/>
<path d="M41.4449 31.6737C40.2122 31.2434 39.2137 30.6643 38.4711 29.4134C37.7286 28.1607 37.8902 26.6575 37.8902 26.6575H51.4083C51.9656 26.6394 53.7031 26.4088 53.5378 24.3192C53.4362 22.9848 53.2074 21.4743 52.7245 20.0255C51.9765 17.7998 50.9199 16.2439 48.6669 14.7951C46.8278 13.6132 44.061 12.9688 41.67 12.9688C38.9504 12.9688 36.4323 13.6405 34.7022 14.4375C32.972 15.2345 31.8246 16.2511 31.0077 17.3804C29.381 19.6171 29.0415 22.5146 29.0469 25.0218C29.0469 25.5174 29.0578 25.993 29.0742 26.4451C29.1432 28.5057 29.8258 31.0728 31.487 33.1551C33.1554 35.2321 35.7878 36.9495 40.1759 37.3417C41.4195 37.4506 42.5923 37.4942 43.687 37.4942C47.948 37.4942 50.2791 36.8025 51.7587 36.3758V31.3705C50.2663 31.8353 48.7649 32.2819 45.6949 32.2783C44.11 32.2746 42.6939 32.1112 41.4485 31.6719L41.4449 31.6737ZM38.1643 20.5502C38.3386 19.8985 38.6418 19.1196 39.4007 18.4806C39.9017 18.0576 40.6406 17.7435 41.4667 17.6981C41.5702 17.6926 41.6755 17.689 41.7789 17.689C42.5614 17.6818 43.2949 17.9014 43.8323 18.2645C44.3733 18.6222 44.7146 19.0833 44.9379 19.5281C45.3791 20.4195 45.3119 22.5345 45.3119 22.5345H38.0318C38.0318 22.5345 37.9973 21.2038 38.1643 20.552V20.5502Z" fill="white"/>
<path d="M78.0323 4.53125H67.704L67.7112 4.53851C67.6549 4.53307 67.6005 4.53307 67.546 4.53125H67.2809C65.4546 4.59116 64.6612 5.83295 64.3562 6.55007L64.1892 7.04025L54.0352 36.8669H63.5882L65.7178 29.1583H76.8958L79.1724 36.8669H89.2229L78.0341 4.53125H78.0323ZM66.9723 23.1999L70.8048 11.441L70.8248 11.3811C70.872 11.2594 71.019 10.9762 71.4148 10.9762C71.8106 10.9762 71.9413 11.2322 71.9939 11.3629L75.801 23.1999H66.9705H66.9723Z" fill="white"/>
<path d="M113.056 4.53125C110.644 4.53125 110.364 6.36489 110.337 6.99123V16.833H100.791V4.53125H93.8503C91.4375 4.53125 91.1561 6.36489 91.1289 6.99123V36.8669H100.791V24.055H110.337V36.8669H119.997V4.53125H113.056Z" fill="white"/>
<path d="M30.4844 4.13568L40.2081 9.56943C40.6529 9.81815 41.1613 9.95976 41.7023 9.95976C42.2433 9.95976 42.7534 9.81815 43.1982 9.56761L51.771 4.70392C52.3446 4.3608 52.5389 3.60374 52.2103 3.01189L50.5146 0L43.2 4.11571C42.7552 4.36443 42.2451 4.50785 41.7041 4.50785C41.1631 4.50785 40.6547 4.36624 40.2099 4.11752L33.8866 0.575509C33.3147 0.237829 32.5813 0.439348 32.249 1.02938L30.4844 4.13749V4.13568Z" fill="#E54E2B"/>
</g>
<defs>
<clipPath id="clip0_4396_2280">
<rect width="120" height="37.497" fill="white"/>
</clipPath>
</defs>
</svg>
