<svg width="24" height="24" viewBox="0 0 24 24" fill="none" xmlns="http://www.w3.org/2000/svg">
<path d="M20.0001 10.9997C19.7555 9.23992 18.9391 7.60937 17.6767 6.3592C16.4143 5.10904 14.7758 4.30862 13.0137 4.08126C11.2516 3.85389 9.46368 4.21219 7.92526 5.10095C6.38684 5.98972 5.18331 7.35964 4.50006 8.99971M4.00006 4.99971V8.99971H8.00006" stroke="#3B4951" stroke-width="1.5" stroke-linecap="round" stroke-linejoin="round"/>
<path d="M4.00006 13C4.24462 14.7598 5.06099 16.3903 6.32342 17.6405C7.58585 18.8907 9.2243 19.6911 10.9864 19.9184C12.7485 20.1458 14.5364 19.7875 16.0749 18.8988C17.6133 18.01 18.8168 16.6401 19.5001 15M20.0001 19V15H16.0001" stroke="#3B4951" stroke-width="1.5" stroke-linecap="round" stroke-linejoin="round"/>
</svg>
