<svg width="267" height="30" viewBox="0 0 267 30" fill="none" xmlns="http://www.w3.org/2000/svg">
<g clip-path="url(#clip0_5036_395)">
<path d="M254.927 16.9877C255.284 16.4036 255.625 15.8033 255.901 15.1543C256.777 13.1749 256.874 12.2014 256.874 12.1851C256.89 12.0067 256.907 11.8282 256.907 11.6659C256.907 11.1467 256.777 10.6924 256.533 10.3355C256.193 9.84873 255.527 9.62158 254.554 9.62158H248.94V11.8931H253.629C254.002 11.8931 254.002 12.104 254.018 12.2825C254.018 12.3474 254.018 12.3961 254.018 12.3961C252.899 17.5556 247.22 21.5632 247.22 21.5632L249.151 23.137C249.151 23.137 251.341 21.5956 253.402 19.097C255.008 21.2873 257.166 22.9261 257.166 22.9261L257.247 22.991L258.789 21.0602C258.789 21.0602 256.663 19.5999 254.911 16.9877H254.927Z" fill="#3B4951"/>
<path d="M263.737 8.61548V14.6512H261.936V8.61548H259.34V28.8318H261.936V16.8902H263.737V28.8318H266.35V8.61548H263.737Z" fill="#3B4951"/>
<path d="M128.827 9.41064C124.868 9.41064 122.434 12.4934 122.418 16.3387C122.418 20.9304 124.77 23.0234 128.324 23.0234C132.218 23.0234 134.749 19.9407 134.749 15.998C134.749 11.2927 132.153 9.42687 128.81 9.41064H128.827ZM128.616 20.833C126.328 20.833 125.111 19.2105 125.095 16.0953C125.095 12.9315 126.815 11.5686 128.616 11.5686C130.936 11.5686 132.072 13.1911 132.088 16.1278C132.088 19.389 130.482 20.8168 128.616 20.833Z" fill="#3B4951"/>
<path d="M138.983 8.61548H136.306V28.848H138.983V17.5392H142.244V15.3002H138.983V8.61548Z" fill="#3B4951"/>
<path d="M112.715 13.7426H109.373V15.9978H112.715V28.848H115.311V8.61548H112.715V13.7426Z" fill="#3B4951"/>
<path d="M119.432 8.61548H116.82V28.848H119.432V8.61548Z" fill="#3B4951"/>
<path d="M106.971 15.3002C107.767 12.9313 107.815 9.60522 107.815 9.60522H105.154V9.9135C105.154 11.0979 104.927 17.231 100.254 21.271L100.157 21.3521L101.99 23.0395L102.055 22.9908C102.055 22.9908 104.181 21.3683 105.836 18.0909C107.474 20.7518 110.103 22.6988 110.119 22.6988L110.2 22.7637L111.758 20.768C111.758 20.768 108.821 18.7886 106.955 15.3002H106.971Z" fill="#3B4951"/>
<path d="M197.036 17.5069C197.134 16.3387 197.036 8.74536 197.036 8.74536H194.359V12.0066H189.167V8.74536H186.506V14.7324C186.506 15.4463 186.571 17.2797 186.717 17.7502C186.863 18.2208 187.074 18.5777 187.382 18.8535C187.675 19.1294 188.08 19.3241 188.567 19.4214C189.07 19.535 189.67 19.5837 190.4 19.5837H194.619C194.619 19.5837 196.89 19.389 197.053 17.5069H197.036ZM194.359 16.6307C194.359 17.1661 193.824 17.1661 193.824 17.1661H190.092C189.8 17.1661 189.962 17.1661 189.816 17.1337C189.638 17.1175 189.508 16.9877 189.411 16.8903C189.313 16.793 189.265 16.6469 189.232 16.436C189.2 16.2413 189.183 14.7324 189.183 14.4241V14.2294H194.375C194.375 14.2294 194.375 16.0304 194.375 16.6307H194.359Z" fill="#3B4951"/>
<path d="M202.374 8.59937H199.697V19.681H202.374V15.2029H205.425V12.9639H202.374V8.59937Z" fill="#3B4951"/>
<path d="M197.166 20.6221C193.743 20.6221 191.617 22.7313 191.617 25.3922C191.617 28.5561 193.662 30.0001 196.744 30.0001C200.103 30.0001 202.309 27.8909 202.309 25.1651C202.309 21.9201 200.054 20.6221 197.166 20.6221ZM196.988 27.9071C195.187 27.9071 194.262 26.9985 194.246 25.2462C194.246 23.4777 195.576 22.7151 196.988 22.7151C198.821 22.7151 199.681 23.6237 199.697 25.2624C199.697 27.0958 198.448 27.8909 196.988 27.8909V27.9071Z" fill="#3B4951"/>
<path d="M155.792 20.6221C152.369 20.6221 150.243 22.7313 150.243 25.3922C150.243 28.5561 152.288 30.0001 155.371 30.0001C158.729 30.0001 160.936 27.8909 160.936 25.1651C160.936 21.9201 158.68 20.6221 155.792 20.6221ZM155.614 27.9071C153.813 27.9071 152.888 26.9985 152.872 25.2462C152.872 23.4777 154.202 22.7151 155.614 22.7151C157.447 22.7151 158.307 23.6237 158.323 25.2624C158.323 27.0958 157.074 27.8909 155.614 27.8909V27.9071Z" fill="#3B4951"/>
<path d="M155.582 15.5274C155.582 14.1969 155.208 13.2072 154.576 12.5095H156.685V10.2867H152.109V8.32349H149.497V10.2867H144.727V12.5095H147.145C146.285 13.337 145.814 14.489 145.814 15.7545C145.814 18.8211 147.696 20.2164 150.487 20.2164C153.553 20.2164 155.565 18.1721 155.565 15.5274H155.582ZM148.232 15.4787C148.232 13.694 149.432 12.9314 150.73 12.9314C152.385 12.9314 153.18 13.8562 153.196 15.4949C153.196 17.3446 152.061 18.1396 150.73 18.1558C149.092 18.1558 148.248 17.231 148.232 15.4787Z" fill="#3B4951"/>
<path d="M161.098 8.61548H158.421V20.1677H161.098V15.7058H163.808V13.4992H161.098V8.61548Z" fill="#3B4951"/>
<path d="M215.03 26.528C214.738 26.4631 214.527 26.3495 214.365 26.171C214.202 25.9925 214.089 25.7491 214.04 25.4571C213.975 25.1488 213.959 24.7757 213.959 24.2889V21.9363H211.217V24.6134C211.217 25.522 211.298 26.2521 211.46 26.8362C211.623 27.4041 211.882 27.8422 212.239 28.1667C212.596 28.4749 213.05 28.7021 213.618 28.8157C214.186 28.9292 215.079 28.9941 215.89 28.9941H223.013V26.6415H216.393C215.922 26.6415 215.354 26.6091 215.062 26.5442L215.03 26.528Z" fill="#3B4951"/>
<path d="M222.98 8.68042H220.254V22.8448H222.98V15.9654H225.901V13.7102H222.98V8.68042Z" fill="#3B4951"/>
<path d="M213.635 16.3549C214.073 16.8254 214.543 17.2797 215.014 17.7016C215.5 18.1234 215.971 18.5128 216.425 18.8536C216.88 19.1943 217.285 19.4539 217.642 19.6324L219.038 17.5556C218.664 17.3609 218.226 17.0526 217.691 16.6632C217.172 16.2738 216.652 15.8357 216.133 15.349C215.614 14.8622 215.144 14.3917 214.738 13.8887C214.349 13.4344 214.073 13.0126 213.894 12.6394C214.089 12.0553 214.251 11.4874 214.381 10.9358C214.511 10.3354 214.592 9.54042 214.624 8.98877H212.093C212.045 9.89737 211.882 10.7735 211.574 11.6497C211.282 12.5258 210.876 13.3533 210.406 14.1483C209.919 14.9433 209.367 15.7059 208.735 16.4036C208.102 17.1013 207.437 17.734 206.707 18.2857L208.361 20.1191C209.27 19.4214 210.098 18.6264 210.876 17.7178C211.558 16.8903 212.174 16.0629 212.677 15.2029C212.953 15.5923 213.278 15.9655 213.635 16.3549Z" fill="#3B4951"/>
<path d="M237.972 19.0645H235.23V23.6399H227.182V26.0899H245.971V23.6399H237.972V19.0645Z" fill="#3B4951"/>
<path d="M236.155 15.6411C239.4 19.1295 242.985 20.6709 243.797 20.9954L245.273 18.7725C244.478 18.4643 240.6 16.8255 237.566 13.3209C237.566 13.3209 238.41 11.666 238.735 9.71899H235.944C234.516 16.1279 227.864 18.9186 227.864 18.9186L229.438 21.0765C233.932 19.0646 236.138 15.6411 236.138 15.6411H236.155Z" fill="#3B4951"/>
<path d="M175.019 14.197H172.261V17.8639H165.105V20.1354H183.894V17.8639H175.019V14.197Z" fill="#3B4951"/>
<path d="M178.248 12.1689V16.4685H180.99V12.104C180.99 9.24843 180.097 8.69678 176.982 8.69678H167.718V10.9845H176.982C178.037 10.9845 178.264 11.2441 178.264 12.1689H178.248Z" fill="#3B4951"/>
<path d="M174.435 21.1414C170.768 21.1414 168.48 23.1046 168.48 25.5546C168.48 28.4751 170.687 29.8055 173.981 29.8217C177.583 29.8217 179.952 27.8747 179.952 25.3436C179.952 22.342 177.534 21.1414 174.435 21.1414ZM174.24 27.8423C172.131 27.8423 171.06 27.0148 171.044 25.4248C171.044 23.8023 172.585 23.1208 174.24 23.1046C176.382 23.1046 177.388 23.9321 177.404 25.441C177.404 27.1122 175.96 27.8423 174.24 27.8585V27.8423Z" fill="#3B4951"/>
<path d="M16.6794 15.1055C15.5274 14.6512 14.846 14.4565 13.4831 14.0671C12.25 13.7101 10.3192 13.4181 8.37221 12.331C7.96658 12.1038 7.38248 11.5197 7.38248 10.8058C7.38248 10.4327 7.38248 9.54029 8.81028 8.81017C9.68643 8.37209 11.0656 8.12872 12.2662 8.08004C12.5583 8.08004 12.8341 8.06382 13.0937 8.06382C15.8519 8.06382 18.1234 8.56679 19.5674 8.97242V5.28934C19.5674 3.92644 18.5453 3.61817 18.2857 3.55327C15.6248 3.08275 12.104 2.80692 9.0212 3.19632C7.20401 3.42347 5.48416 3.79664 4.04013 4.49432C2.57988 5.19199 1.52526 6.10059 0.843811 7.28502C0.389511 8.08004 0.0974616 9.00487 0.0163367 10.1406C0.000111707 10.4164 -0.0161133 10.676 -0.0161133 10.9356C-0.0161133 12.2174 0.243487 13.2071 0.649111 14.0184C1.05474 14.8296 1.62261 15.576 2.32028 16.1276C3.71563 17.2309 5.33813 17.9124 7.00931 18.3342C8.40466 18.6912 11.2116 19.47 11.9904 19.8918C12.7854 20.3137 13.1424 20.7518 13.2397 21.3359C13.4506 22.5203 12.7043 23.1693 12.2013 23.4938C11.3089 24.0617 10.0921 24.3213 7.82056 24.2239C4.90006 24.1103 1.94711 23.6074 0.243487 23.0395V28.2801C0.697786 28.3937 1.33056 28.5235 2.12559 28.6533C3.99146 28.9778 6.40898 29.3997 10.1083 29.3023C13.7265 29.205 16.5983 28.3937 18.3992 27.0633C20.2002 25.7166 20.8492 24.0779 20.979 22.1147C20.9952 21.8226 21.0115 21.5468 21.0115 21.2872C21.0115 19.5511 20.5734 18.4316 19.9244 17.4743C19.2754 16.5333 18.3506 15.7545 16.6469 15.0892L16.6794 15.1055Z" fill="#3B4951"/>
<path d="M41.2602 15.6735C40.6761 13.9374 39.8486 12.7205 38.0801 11.5848C36.6361 10.66 34.4782 10.157 32.6123 10.157C30.4868 10.157 28.5074 10.6762 27.1607 11.309C25.814 11.9255 24.9054 12.7368 24.2726 13.6129C23.0071 15.3652 22.7313 17.6367 22.7475 19.5837C22.7475 19.9731 22.7475 20.3463 22.7637 20.7032C22.8124 22.3257 23.3478 24.3214 24.6458 25.9601C25.9438 27.5826 28.0044 28.9293 31.4441 29.2376C32.4176 29.3187 33.3424 29.3511 34.1861 29.3511C37.5284 29.3511 39.3456 28.8157 40.4976 28.475V24.5485C39.3294 24.9055 38.1612 25.2624 35.7599 25.2624C34.5106 25.2624 33.4073 25.1326 32.4338 24.7919C31.4603 24.4512 30.6815 23.9969 30.0974 23.0234C29.5133 22.0499 29.6431 20.8655 29.6431 20.8655H40.2218C40.6599 20.8655 42.0228 20.6708 41.893 19.032C41.8118 17.9936 41.6334 16.8092 41.2602 15.6735ZM35.4679 17.6367H29.7729C29.7729 17.6367 29.7405 16.5983 29.8703 16.0791C30.0001 15.5761 30.2434 14.9596 30.8275 14.4566C31.2169 14.1321 31.801 13.8725 32.45 13.8401C32.5312 13.8401 32.6123 13.8401 32.6934 13.8401C33.31 13.8401 33.8778 14.0023 34.2997 14.2944C34.7215 14.5702 34.9974 14.9271 35.1596 15.2841C35.5003 15.9818 35.4517 17.6367 35.4517 17.6367H35.4679Z" fill="#3B4951"/>
<path d="M52.9747 3.55347H52.6502C51.2224 3.60214 50.6059 4.57564 50.3625 5.12729L50.2327 5.51669L42.2825 28.8644H49.7622L51.4334 22.8287H60.1786L61.9634 28.8644H69.8325L61.071 3.55347H52.991H52.9747ZM52.4069 18.156L55.4085 8.95639V8.90771C55.4572 8.81036 55.5707 8.58321 55.8952 8.58321C56.1873 8.58321 56.3009 8.77791 56.3495 8.89149L59.3349 18.156H52.4231H52.4069Z" fill="#3B4951"/>
<path d="M86.3495 5.46801V13.1749H78.886V3.55347H73.4507C71.5686 3.55347 71.3414 4.98127 71.3252 5.48424V28.8644H78.886V18.8374H86.3495V28.8644H93.9104V3.55347H88.475C86.5929 3.55347 86.3658 4.98127 86.3495 5.48424V5.46801Z" fill="#3B4951"/>
<path d="M32.6449 7.78811C33.0668 7.78811 33.4724 7.67453 33.8131 7.47983L40.5302 3.66696C40.9683 3.40736 41.1306 2.80703 40.871 2.33651L39.5405 -0.0161133L33.8131 3.19643C33.4724 3.39113 33.0668 3.50471 32.6449 3.50471C32.2231 3.50471 31.8174 3.39113 31.4767 3.19643L26.5281 0.421961C26.0738 0.162362 25.5059 0.308386 25.2463 0.778911L23.8672 3.21266L31.4767 7.46361C31.8174 7.65831 32.2231 7.77188 32.6449 7.77188V7.78811Z" fill="#E54E2B"/>
</g>
<defs>
<clipPath id="clip0_5036_395">
<rect width="266.349" height="30" fill="white"/>
</clipPath>
</defs>
</svg>
