<svg width="190" height="30" viewBox="0 0 190 30" fill="none" xmlns="http://www.w3.org/2000/svg">
<g clip-path="url(#clip0_5036_642)">
<path d="M20.3927 17.8872C19.729 16.9249 18.7832 16.1284 17.0409 15.4481C15.8628 14.9835 15.1659 14.7844 13.7721 14.3861C12.5111 14.0211 10.5365 13.7224 8.56195 12.6107C8.14712 12.3784 7.53319 11.781 7.53319 11.051C7.53319 10.6693 7.53319 9.75671 8.99336 9.01003C9.88938 8.56202 11.2998 8.31313 12.5277 8.26335C12.8097 8.26335 13.0918 8.26335 13.3739 8.26335C16.1947 8.26335 18.5177 8.77773 19.9945 9.19255V5.40936C19.9945 4.01556 18.9491 3.70029 18.6836 3.63392C15.9624 3.15273 12.3617 2.87065 9.22566 3.26888C7.36726 3.50118 5.625 3.88281 4.13164 4.59631C2.63827 5.30981 1.55973 6.23901 0.879425 7.45029C0.431416 8.26335 0.132743 9.20914 0.0331858 10.3706C0.0165929 10.6527 0 10.9182 0 11.1837C0 12.4945 0.265487 13.5067 0.68031 14.3364C1.09513 15.166 1.67589 15.9293 2.38938 16.4934C3.81637 17.6218 5.47566 18.3021 7.16814 18.7501C8.59513 19.1151 11.4657 19.895 12.2788 20.343C13.0752 20.7744 13.4569 21.2224 13.5564 21.8198C13.7555 23.031 12.9923 23.6948 12.4945 24.0266C11.5819 24.6074 10.354 24.8729 8.03097 24.7733C5.02766 24.6572 2.02434 24.1428 0.28208 23.5786V28.9381C0.746681 29.0543 1.39381 29.187 2.22345 29.3198C4.13164 29.6516 6.58739 30.083 10.3706 29.9835C14.0708 29.8839 17.0077 29.0543 18.833 27.6937C20.6748 26.3164 21.3385 24.6406 21.4712 22.6328C21.4878 22.3507 21.5044 22.0521 21.5044 21.7866C21.5044 20.0111 21.0564 18.8496 20.3927 17.8872Z" fill="#3B4951"/>
<path d="M33.1525 25.3374C32.157 24.989 31.3605 24.5244 30.7632 23.5288C30.1658 22.5332 30.2986 21.3219 30.2986 21.3219H41.1171C41.5652 21.3219 42.959 21.1228 42.8262 19.4469C42.7432 18.385 42.5607 17.1737 42.1791 16.0122C41.5817 14.2202 40.7355 12.9923 38.9269 11.8308C37.4501 10.885 35.2432 10.3706 33.3185 10.3706C31.1448 10.3706 29.1371 10.9016 27.7432 11.5487C26.366 12.1958 25.4368 13.0089 24.7897 13.9049C23.4955 15.6969 23.2134 18.0199 23.2134 20.0111C23.2134 20.4093 23.2134 20.791 23.23 21.156C23.2798 22.7987 23.8273 24.8562 25.1548 26.5321C26.4988 28.1914 28.5895 29.5686 32.1072 29.8839C33.1028 29.9668 34.032 30 34.9114 30C38.3295 30 40.1879 29.4359 41.366 29.104V25.1051C40.1713 25.4702 38.9601 25.8352 36.5043 25.8352C35.2432 25.8352 34.0983 25.7025 33.1028 25.354L33.1525 25.3374ZM30.5309 16.4436C30.6636 15.9292 30.9125 15.2987 31.5264 14.7843C31.9247 14.4359 32.522 14.187 33.1857 14.1538C33.2687 14.1538 33.3517 14.1538 33.4346 14.1538C34.0651 14.1538 34.6459 14.3197 35.0773 14.6184C35.5087 14.9005 35.7908 15.2655 35.9567 15.6306C36.3052 16.3441 36.2554 18.0365 36.2554 18.0365H30.4313C30.4313 18.0365 30.3981 16.9746 30.5309 16.4436Z" fill="#3B4951"/>
<path d="M62.4226 3.63379H53.8109C52.3507 3.68357 51.7202 4.67914 51.4713 5.2433L51.3385 5.64153L43.208 29.5022H50.8573L52.5498 23.3462H61.4934L63.3186 29.5022H71.3496L62.406 3.63379H62.4226ZM53.562 18.5674L56.6317 9.15923V9.10945C56.6815 9.00989 56.7976 8.77759 57.1295 8.77759C57.4281 8.77759 57.5443 8.97671 57.5941 9.09286L60.6306 18.5508H53.562V18.5674Z" fill="#3B4951"/>
<path d="M90.4479 3.63379C88.5231 3.63379 88.2908 5.09397 88.2742 5.59175V13.4734H80.6415V3.63379H75.0829C73.1581 3.63379 72.9258 5.09397 72.9092 5.59175V29.4856H80.6415V19.2311H88.2742V29.4856H96.0065V3.63379H90.4479Z" fill="#3B4951"/>
<path d="M24.3916 3.30198L32.1571 7.64933C32.5221 7.84844 32.9204 7.96459 33.3518 7.96459C33.7832 7.96459 34.198 7.84844 34.5465 7.64933L41.3993 3.74999C41.8474 3.46791 42.0133 2.87057 41.7478 2.38937L40.3872 -0.0166016L34.5465 3.2688C34.198 3.46791 33.7832 3.58406 33.3518 3.58406C32.9204 3.58406 32.5221 3.46791 32.1571 3.2688L27.1128 0.431407C26.6482 0.165921 26.0675 0.315257 25.802 0.796452L24.3916 3.28539V3.30198Z" fill="#E54E2B"/>
<path d="M142.002 15.5807V8.74438H139.265V29.4358H142.002V17.8871H145.354V15.5973H142.002V15.5807ZM131.615 9.55744C127.567 9.55744 125.078 12.7101 125.061 16.6426C125.061 21.3384 127.467 23.4789 131.101 23.4789C135.067 23.4789 137.672 20.3262 137.672 16.2942C137.672 11.4822 135.033 9.57403 131.599 9.55744H131.615ZM131.4 21.2389C129.06 21.2389 127.815 19.563 127.799 16.3937C127.799 13.1581 129.558 11.7809 131.4 11.7643C133.772 11.7643 134.934 13.4236 134.95 16.4103C134.95 19.7621 133.291 21.2223 131.4 21.2223V21.2389Z" fill="#3B4951"/>
<path d="M115.155 14.0043H111.737V16.2942H115.155V29.4358H117.81V8.74438H115.155V14.0043ZM119.353 8.74438V29.4192H122.024V8.74438H119.353ZM109.281 15.5807C110.094 13.1415 110.144 9.75655 110.144 9.75655H107.439V10.0718C107.439 11.2831 107.207 17.5552 102.412 21.6869L102.312 21.7698L104.187 23.4955L104.253 23.4457C104.253 23.4457 106.427 21.7864 108.12 18.4346C109.795 21.1559 112.5 23.147 112.5 23.147L112.583 23.2134L114.176 21.1725C114.176 21.1725 111.173 19.1481 109.264 15.5807H109.281Z" fill="#3B4951"/>
<path d="M182.771 28.2577C181.543 28.2577 180.332 28.0918 179.369 27.8263L179.519 25.0221C180.481 25.4037 181.809 25.7024 183.036 25.7024C184.895 25.7024 186.77 24.8562 186.77 22.865C186.77 18.9989 178.988 20.1106 178.988 14.7013C178.988 11.5487 181.278 9.3418 185.21 9.3418C186.222 9.3418 187.251 9.47454 188.28 9.67365L188.13 12.1958C187.152 11.9469 186.073 11.7975 185.061 11.7975C182.953 11.7975 181.792 12.8595 181.792 14.386C181.792 18.0531 189.524 17.0575 189.524 22.6659C189.524 26.0343 186.82 28.2743 182.771 28.2743V28.2577Z" fill="#3B4951"/>
<path d="M174.84 24.0596C176.217 22.1182 176.93 19.6625 176.781 17.8538H174.508V18.5342C174.508 20.1105 173.778 21.7864 173.131 22.7322V22.699C171.438 21.2886 169.613 19.48 168.335 18.1193C170.127 16.5928 171.023 15.1824 171.023 13.4401C171.023 11.4656 169.712 10.0552 167.273 10.0552C164.585 10.0552 163.092 11.814 163.092 13.855C163.092 15.0994 163.556 16.2443 165.166 18.1691C163.473 19.6293 162.229 21.0729 162.229 23.2963C162.229 25.9014 163.905 27.9921 167.257 27.9921C169.663 27.9921 171.72 27.1127 173.097 25.8185C174.01 26.5817 175.089 27.4446 176.167 28.2576L177.727 26.2996C176.881 25.6857 175.902 24.9224 174.856 24.0264L174.84 24.0596ZM167.091 12.2123C168.186 12.2123 168.667 12.9258 168.667 13.7886C168.667 14.8671 168.07 15.7134 166.925 16.6923C165.83 15.3483 165.448 14.5519 165.448 13.855C165.448 12.8594 166.112 12.1957 167.074 12.1957L167.091 12.2123ZM167.671 25.7189C165.946 25.7189 164.834 24.4412 164.834 22.9811C164.834 21.9191 165.448 21.0563 166.709 19.9446C167.854 21.272 169.546 22.9313 171.189 24.3749C170.227 25.1215 169.082 25.7189 167.655 25.7189H167.671Z" fill="#3B4951"/>
<path d="M149.652 28.1913V9.65698H152.638V25.5862H159.027V28.1913H149.652Z" fill="#3B4951"/>
</g>
<defs>
<clipPath id="clip0_5036_642">
<rect width="189.524" height="30" fill="white"/>
</clipPath>
</defs>
</svg>
