<svg width="230" height="30" viewBox="0 0 230 30" fill="none" xmlns="http://www.w3.org/2000/svg">
<path d="M20.2863 17.7918C19.6255 16.8337 18.6839 16.0407 16.9493 15.3634C15.7764 14.9008 15.0826 14.7026 13.6949 14.3061C12.4394 13.9427 10.4736 13.6453 8.50771 12.5385C8.09471 12.3072 7.5 11.7125 7.5 10.9856C7.5 10.6057 7.5 9.6971 8.95374 8.97023C9.84581 8.52419 11.25 8.2764 12.4725 8.24336C12.7533 8.24336 13.0341 8.24336 13.315 8.24336C16.1233 8.24336 18.4361 8.73895 19.9064 9.16847V5.38543C19.9064 3.99776 18.8656 3.68389 18.6013 3.61781C15.8921 3.13873 12.3238 2.8579 9.18502 3.25437C7.3348 3.48565 5.60022 3.8656 4.11344 4.57596C2.62665 5.28631 1.55286 6.21142 0.875551 7.41737C0.429515 8.22684 0.132159 9.16847 0.0330396 10.3249C0.0165198 10.6057 0 10.87 0 11.1343C0 12.4394 0.264317 13.4306 0.677313 14.2731C1.09031 15.0991 1.6685 15.859 2.37885 16.4207C3.79956 17.544 5.45154 18.2379 7.15308 18.6674C8.57379 19.0308 11.4152 19.8238 12.2247 20.2533C13.0176 20.6828 13.3976 21.1288 13.4967 21.707C13.7115 22.913 12.9515 23.5738 12.4394 23.9042C11.5308 24.4823 10.2919 24.7467 7.99559 24.6475C5.02203 24.5319 2.01542 24.0363 0.297357 23.4581V28.794C0.759912 28.9097 1.40419 29.0418 2.21366 29.1905C4.11344 29.5209 6.55837 29.9504 10.3249 29.8348C14.0088 29.7356 16.9163 28.9097 18.75 27.555C20.5837 26.1839 21.2445 24.5319 21.3766 22.5165C21.3932 22.2191 21.3932 21.9548 21.3932 21.674C21.3932 19.9064 20.9471 18.7665 20.2863 17.8083V17.7918Z" fill="#3B4951"/>
<path d="M32.9736 25.2092C31.9989 24.8623 31.206 24.3998 30.6113 23.4086C30.0166 22.4174 30.1487 21.2114 30.1487 21.2114H40.9031C41.3492 21.2114 42.7368 21.0132 42.6047 19.3447C42.5221 18.2874 42.3403 17.0815 41.9604 15.9251C41.3657 14.1575 40.5232 12.9185 38.7225 11.7621C37.2522 10.8205 35.0551 10.3083 33.1553 10.3083C30.9912 10.3083 28.9923 10.837 27.6047 11.4813C26.2335 12.1255 25.3249 12.9185 24.6641 13.8271C23.3756 15.6112 23.0947 17.9075 23.1113 19.9064C23.1113 20.3028 23.1113 20.6828 23.1278 21.0462C23.1773 22.6817 23.7225 24.7302 25.0441 26.3821C26.3657 28.0341 28.4637 29.4053 31.9494 29.7191C32.9406 29.8017 33.8822 29.8348 34.7412 29.8348C38.1278 29.8348 39.9945 29.2896 41.1674 28.9427V24.9614C39.978 25.3249 38.7886 25.6883 36.3436 25.6883C35.0716 25.6883 33.9483 25.5561 32.9571 25.2092H32.9736ZM30.3635 16.3546C30.4956 15.8425 30.7434 15.2147 31.3381 14.7026C31.7346 14.3557 32.3293 14.1079 32.9901 14.0749C33.0727 14.0749 33.1553 14.0749 33.2379 14.0749C33.8657 14.0749 34.4439 14.2401 34.8734 14.5374C35.3029 14.8183 35.5672 15.1982 35.7489 15.5451C36.0958 16.2555 36.0463 17.9405 36.0463 17.9405H30.2478C30.2478 17.9405 30.2148 16.8832 30.347 16.3546H30.3635Z" fill="#3B4951"/>
<path d="M62.0981 3.60132H53.8878C53.8878 3.60132 53.8052 3.60132 53.7556 3.60132H53.5409C52.0871 3.65088 51.4594 4.64207 51.2116 5.20374L51.0794 5.60022L43.0012 29.3392H50.6003L52.3019 23.2104H61.1895L63.0067 29.3392H71.0023L62.0981 3.60132ZM53.2931 18.4526L56.3492 9.10242V9.05286C56.3988 8.95374 56.5144 8.73898 56.8448 8.73898C57.1422 8.73898 57.2578 8.93722 57.3074 9.05286L60.3305 18.4692H53.3096L53.2931 18.4526Z" fill="#3B4951"/>
<path d="M89.9669 3.60132C88.0341 3.60132 87.8193 5.05506 87.8028 5.56718V13.3976H80.2037V3.60132H74.6861C72.7698 3.60132 72.5385 5.05506 72.522 5.56718V29.3392H80.2037V19.1465H87.8028V29.3392H95.4845V3.60132H89.9669Z" fill="#3B4951"/>
<path d="M24.2512 3.28745L31.9825 7.61564C32.3294 7.81388 32.7424 7.92952 33.1719 7.92952C33.6014 7.92952 34.0144 7.81388 34.3614 7.61564L41.184 3.75C41.6301 3.46916 41.7953 2.87445 41.531 2.39537L40.1763 0L34.3614 3.27093C34.0144 3.46916 33.6014 3.5848 33.1719 3.5848C32.7424 3.5848 32.3294 3.46916 31.9825 3.27093L26.9605 0.462555C26.4979 0.198238 25.9197 0.346916 25.6554 0.825991L24.2512 3.30396V3.28745Z" fill="#E54E2B"/>
<path d="M158.359 14.62H154.675V16.8997H158.359V29.3557H161.019V8.72241H158.359V14.62Z" fill="#3B4951"/>
<path d="M165.182 8.72241H162.539V29.3557H165.182V8.72241Z" fill="#3B4951"/>
<path d="M141.36 15.5615V8.75537H138.634V29.3556H141.36V17.8413H144.697V15.5615H141.36ZM131.019 9.56484C126.988 9.56484 124.51 12.7036 124.493 16.6188C124.493 21.2939 126.889 23.425 130.507 23.425C134.471 23.425 137.048 20.2862 137.048 16.2719C137.048 11.4811 134.405 9.56484 131.002 9.56484H131.019ZM130.804 21.1948C128.475 21.1948 127.236 19.5263 127.219 16.371C127.219 13.1496 128.97 11.762 130.804 11.762C133.166 11.762 134.323 13.414 134.339 16.3875C134.339 19.7245 132.687 21.1783 130.804 21.1783V21.1948Z" fill="#3B4951"/>
<path d="M114.631 13.9758H111.228V16.2555H114.631V29.3392H117.291V8.75553H114.631V13.9923V13.9758ZM118.827 8.73901V29.3227H121.487V8.75553H118.827V8.73901ZM108.8 15.5452C109.609 13.1333 109.659 9.74672 109.659 9.74672H106.966V10.0606C106.966 11.2665 106.735 17.511 101.96 21.6245L101.861 21.7071L103.728 23.4251L103.794 23.3756C103.794 23.3756 105.958 21.7236 107.643 18.3866C109.312 21.0958 111.988 23.0782 112.005 23.0782L112.087 23.1443L113.673 21.1124C113.673 21.1124 110.683 19.0969 108.783 15.5452H108.8Z" fill="#3B4951"/>
<path d="M151.603 20.7985C151.338 20.7985 151.107 20.782 150.942 20.7324C150.777 20.6829 150.644 20.6003 150.578 20.4846C150.496 20.3525 150.446 20.2038 150.43 19.989C150.413 19.7743 150.397 19.4934 150.397 19.163V9.48242H147.77V19.4769C147.77 20.1542 147.82 20.7159 147.902 21.1785C147.985 21.641 148.167 22.021 148.447 22.3183C148.728 22.5992 149.108 22.8139 149.587 22.9296C150.083 23.0452 150.727 23.1113 151.537 23.1113H156.79V20.7985H151.603Z" fill="#3B4951"/>
<path d="M184.708 17.8249H173.954C173.673 17.8249 173.458 17.8083 173.293 17.7588C173.128 17.7092 172.996 17.6266 172.93 17.511C172.847 17.3953 172.798 17.2136 172.781 16.9989C172.748 16.7841 172.748 16.272 172.748 15.9416V15.859H184.031V13.6619H172.748V11.8116H184.394V9.6145H170.121V16.2555C170.121 16.9328 170.171 17.7257 170.253 18.2048C170.353 18.6674 170.534 19.0473 170.799 19.3447C171.079 19.642 171.459 19.8403 171.939 19.9559C172.434 20.0881 173.078 20.1376 173.888 20.1376H184.708V17.8249Z" fill="#3B4951"/>
<path d="M186.971 23.2102H168.205V25.4569H186.971V23.2102Z" fill="#3B4951"/>
<path d="M195.611 8.29289C192.373 8.29289 190.375 10.2092 190.375 12.6211C190.375 15.4955 192.324 16.8006 195.215 16.8006C198.387 16.8006 200.468 14.8843 200.485 12.4063C200.485 9.44927 198.354 8.27637 195.628 8.27637L195.611 8.29289ZM195.446 14.7852C193.678 14.7687 192.77 13.9592 192.753 12.3898C192.753 10.8039 194.042 10.1101 195.446 10.0935C197.23 10.0935 198.073 10.9195 198.089 12.3898C198.089 14.0418 196.867 14.7687 195.446 14.7687V14.7852Z" fill="#3B4951"/>
<path d="M203.888 27.0428C203.888 26.4977 203.822 26.1507 203.656 25.9855C203.491 25.8203 203.161 25.7377 202.649 25.7377H192.555V23.458H202.649C203.409 23.458 204.036 23.5076 204.532 23.6067C205.028 23.7223 205.424 23.904 205.721 24.1684C206.019 24.4327 206.234 24.7961 206.349 25.2752C206.465 25.7377 206.531 26.3325 206.531 27.0428V29.9999H203.871V27.0428H203.888Z" fill="#3B4951"/>
<path d="M203.012 17.7917V19.9228H197.643V22.5329H195.017V19.9228H189.086V17.7917H203.012Z" fill="#3B4951"/>
<path d="M201.41 13.1992V15.4955H203.904V22.5329H206.547V8.75537H203.904V13.1992H201.41Z" fill="#3B4951"/>
<path d="M210.248 23.7224V26.0517H229.295V23.7224H210.248Z" fill="#3B4951"/>
<path d="M228.536 18.271C227.743 17.9736 223.86 16.4208 220.837 13.1003C220.837 13.1003 221.68 11.5474 221.994 9.68066H219.202C217.781 15.7765 211.14 18.4197 211.14 18.4197L212.71 20.4681C217.203 18.5518 219.4 15.2974 219.4 15.2974C222.638 18.6179 226.223 20.0716 227.032 20.3855L228.519 18.271H228.536Z" fill="#3B4951"/>
</svg>
