<svg width="198" height="30" viewBox="0 0 198 30" fill="none" xmlns="http://www.w3.org/2000/svg">
<path d="M142.096 15.6738V8.83521H139.368V29.5507H142.096V17.9866H145.441V15.6904H142.096V15.6738ZM131.697 9.65051C127.637 9.65051 125.141 12.8119 125.141 16.7387C125.141 21.4309 127.554 23.5773 131.198 23.5939C135.175 23.5939 137.77 20.4325 137.787 16.3893C137.787 11.5806 135.141 9.65051 131.714 9.65051H131.697ZM131.481 21.3477C129.135 21.3477 127.887 19.6838 127.887 16.5058C127.887 13.2612 129.651 11.8801 131.481 11.8635C133.86 11.8635 135.025 13.5274 135.042 16.5224C135.042 19.8668 133.394 21.331 131.481 21.3477Z" fill="#3B4951"/>
<path d="M115.191 14.0931H111.764V16.3893H115.191V29.534H117.853V8.83521H115.191V14.0931ZM119.401 8.83521V29.534H122.08V8.83521H119.401ZM109.318 15.6738C110.133 13.2445 110.183 9.85018 110.183 9.85018H107.471V9.96665C107.471 9.96665 107.471 10.0332 107.471 10.1663C107.471 11.381 107.221 17.6705 102.429 21.7969L102.346 21.8801L104.226 23.6106L104.293 23.5607C104.293 23.5607 106.472 21.9134 108.17 18.5523C109.85 21.2811 112.546 23.2612 112.546 23.2778L112.629 23.3444L114.226 21.2978C114.226 21.2978 111.214 19.2678 109.318 15.7071V15.6738Z" fill="#3B4951"/>
<path d="M20.3993 17.887C19.7337 16.9219 18.7853 16.1232 17.0548 15.441C15.8735 14.9752 15.1746 14.7755 13.7936 14.3762C12.529 14.0101 10.5656 13.7106 8.56898 12.5958C8.153 12.3628 7.554 11.7638 7.554 11.0317C7.554 10.649 7.554 9.73389 9.01823 9.00178C9.91673 8.55253 11.331 8.31958 12.5623 8.26966C12.8452 8.26966 13.128 8.25303 13.4109 8.25303C16.2395 8.25303 18.5523 8.75219 20.0332 9.18481V5.40777C20.0332 4.02674 18.9849 3.69396 18.7354 3.6274C16.0232 3.14487 12.4126 2.86201 9.26781 3.26135C7.40425 3.49429 5.65716 3.87699 4.1763 4.59246C2.67879 5.2913 1.59726 6.23971 0.915067 7.45436C0.465815 8.26966 0.166315 9.20145 0.066481 10.3662C0.0332031 10.649 0.0332031 10.9153 0.0332031 11.1815C0.0332031 12.496 0.299426 13.4943 0.715399 14.3429C1.13137 15.1748 1.71374 15.9402 2.42921 16.5059C3.84352 17.6374 5.52405 18.3362 7.22122 18.7688C8.65217 19.1349 11.5141 19.9169 12.3294 20.3662C13.128 20.7988 13.5107 21.248 13.6106 21.8304C13.8269 23.045 13.0615 23.7106 12.5457 24.0434C11.6472 24.6257 10.3993 24.892 8.08645 24.7921C5.09144 24.6757 2.07979 24.1598 0.332704 23.5941V28.9519C0.798594 29.0683 1.44751 29.2014 2.26282 29.3512C4.1763 29.6673 6.63886 30.1166 10.4159 30.0001C14.1264 29.9003 17.0548 29.085 18.8851 27.7039C20.732 26.3229 21.3976 24.659 21.5307 22.6457C21.5473 22.3628 21.564 22.08 21.564 21.8138C21.564 20.0334 21.1147 18.8853 20.4492 17.9202L20.3993 17.887Z" fill="#3B4951"/>
<path d="M33.1612 25.341C32.1795 24.9916 31.3809 24.5424 30.7819 23.5274C30.1829 22.5291 30.316 21.3144 30.316 21.3144H41.1313C41.5805 21.3144 42.9616 21.1148 42.8284 19.4342C42.7453 18.3693 42.5622 17.1547 42.1795 15.99C41.5805 14.2096 40.7319 12.9617 38.9349 11.8136C37.4541 10.8652 35.2411 10.3494 33.3276 10.3494C31.1479 10.3494 29.1346 10.8818 27.7536 11.5141C26.3725 12.1464 25.4574 12.9617 24.7918 13.8768C23.494 15.6738 23.2278 17.9866 23.2278 19.9999C23.2278 20.3993 23.2278 20.782 23.2444 21.1314C23.2943 22.7786 23.8434 24.8419 25.1745 26.5058C26.5057 28.1697 28.6188 29.5341 32.1296 29.8502C33.1279 29.9334 34.0597 29.9667 34.9416 29.9667C38.3526 29.9667 40.2161 29.4176 41.3975 29.0848V25.0748C40.1995 25.4409 39.0015 25.8069 36.5389 25.8069C35.2744 25.8069 34.1429 25.6738 33.1446 25.3244L33.1612 25.341ZM30.5323 16.4392C30.6654 15.9234 30.915 15.2911 31.514 14.7753C31.9133 14.4259 32.5123 14.193 33.1779 14.143C33.2611 14.143 33.3443 14.143 33.4275 14.143C34.0597 14.143 34.6421 14.3094 35.0747 14.6089C35.5073 14.8918 35.7902 15.2579 35.9566 15.6239C36.306 16.3394 36.2561 18.0366 36.2561 18.0366H30.4324C30.4324 18.0366 30.3992 16.9717 30.5323 16.4559V16.4392Z" fill="#3B4951"/>
<path d="M62.4459 3.6272H53.8436C52.3794 3.67711 51.7471 4.67545 51.5141 5.24117L51.381 5.64051L43.2612 29.5174H50.8985L52.5957 23.3443H61.5474L63.3777 29.5174H71.4143L62.4626 3.64384L62.4459 3.6272ZM53.594 18.569L56.6556 9.16796V9.11805C56.7055 9.01821 56.822 8.80191 57.1547 8.80191C57.4542 8.80191 57.5707 9.00157 57.6206 9.11805L60.6656 18.5856H53.594V18.569Z" fill="#3B4951"/>
<path d="M90.4657 3.6272C88.5356 3.6272 88.3193 5.09142 88.286 5.59059V13.4608H80.6487V3.6272H75.0913C73.1612 3.6272 72.9283 5.09142 72.9116 5.59059V29.5007H80.6487V19.2512H88.286V29.5007H96.0065V3.6272H90.4491H90.4657Z" fill="#3B4951"/>
<path d="M24.3927 3.31115L32.163 7.65391C32.5125 7.85358 32.9284 7.97005 33.361 7.97005C33.7936 7.97005 34.2096 7.85358 34.559 7.65391L41.4143 3.7604C41.8635 3.47754 42.0299 2.87854 41.7637 2.41265L40.3993 0L34.5424 3.29451C34.193 3.49418 33.777 3.61065 33.3444 3.61065C32.9118 3.61065 32.5125 3.49418 32.1464 3.29451L27.0882 0.46589C26.6223 0.199667 26.0399 0.349418 25.7737 0.831947L24.3594 3.31115H24.3927Z" fill="#E54E2B"/>
<path d="M191.131 28.619C189.883 28.619 188.652 28.4526 187.654 28.1697L187.803 25.3079C188.785 25.6905 190.133 26.0067 191.381 26.0067C193.278 26.0067 195.191 25.1415 195.191 23.1115C195.191 19.1681 187.254 20.3162 187.254 14.792C187.254 11.5807 189.584 9.33447 193.61 9.33447C194.642 9.33447 195.69 9.46758 196.739 9.66725L196.589 12.2463C195.591 11.9967 194.492 11.8303 193.461 11.8303C191.314 11.8303 190.133 12.9118 190.133 14.4759C190.133 18.2197 198.02 17.2047 198.02 22.9118C198.02 26.3561 195.258 28.619 191.131 28.619Z" fill="#3B4951"/>
<path d="M154.492 9.65067H151.032L148.519 28.5359H151.281C151.281 28.5359 152.812 15.1582 152.928 13.7771L156.938 28.5359H158.436V24.5758L154.492 9.63403V9.65067Z" fill="#3B4951"/>
<path d="M162.363 9.65067H165.823L168.336 28.5359H165.574C165.574 28.5359 164.043 15.1582 163.943 13.7771L159.933 28.5359H158.436V24.5758L162.363 9.63403V9.65067Z" fill="#3B4951"/>
<path d="M183.045 24.3263C184.459 22.3462 185.175 19.8504 185.025 18.0035H182.712V18.7023C182.712 20.3163 181.98 22.0134 181.314 22.9785C179.584 21.5143 177.72 19.6674 176.423 18.2863C178.236 16.7223 179.151 15.2913 179.151 13.5109C179.151 11.4976 177.804 10.05 175.324 10.05C172.596 10.05 171.065 11.8471 171.065 13.9103C171.065 15.1748 171.547 16.3396 173.178 18.3196C171.447 19.8005 170.166 21.2813 170.166 23.5442C170.166 26.1898 171.88 28.3362 175.291 28.3362C177.754 28.3362 179.85 27.4377 181.248 26.1233C182.18 26.9053 183.278 27.7705 184.359 28.6025L185.94 26.6058C185.075 25.9735 184.076 25.1915 183.012 24.293L183.045 24.3263ZM175.158 12.2297C176.273 12.2297 176.772 12.9619 176.772 13.8437C176.772 14.9419 176.156 15.8071 174.992 16.8055C173.877 15.4411 173.494 14.6258 173.494 13.9269C173.494 12.9119 174.176 12.2464 175.158 12.2464V12.2297ZM175.74 25.9901C173.977 25.9901 172.862 24.6923 172.862 23.2114C172.862 22.1299 173.494 21.2481 174.775 20.1C175.94 21.4477 177.687 23.1449 179.351 24.6258C178.369 25.3911 177.205 25.9901 175.757 25.9901H175.74Z" fill="#3B4951"/>
</svg>
