<svg width="186" height="30" viewBox="0 0 186 30" fill="none" xmlns="http://www.w3.org/2000/svg">
<g clip-path="url(#clip0_5036_594)">
<path d="M20.1144 17.647C19.4608 16.6993 18.5294 15.915 16.8137 15.245C15.6536 14.7875 14.951 14.5914 13.5948 14.1993C12.3529 13.8398 10.4085 13.5457 8.44771 12.4346C8.03922 12.2058 7.43464 11.6176 7.43464 10.8823C7.43464 10.5065 7.43464 9.60778 8.87255 8.87248C9.77124 8.41497 11.1601 8.18621 12.3693 8.13719C12.6634 8.13719 12.9412 8.13719 13.2026 8.13719C15.9804 8.13719 18.268 8.62739 19.7222 9.05222V5.34307C19.7222 3.97052 18.6928 3.64373 18.4314 3.59471C15.7516 3.12085 12.2059 2.84307 9.10131 3.23523C7.27124 3.46399 5.53922 3.85614 4.08497 4.54242C2.61438 5.24503 1.55229 6.1764 0.866013 7.35288C0.408497 8.15353 0.114379 9.0849 0.0326797 10.2287C0 10.5065 0 10.7679 0 11.0293C0 12.3202 0.261438 13.3169 0.669935 14.1339C1.07843 14.9509 1.66667 15.7025 2.35294 16.2581C3.75817 17.3856 5.39216 18.0555 7.07516 18.4967C8.48039 18.8561 11.3072 19.6405 12.1078 20.0653C12.9085 20.5065 13.268 20.9313 13.366 21.5195C13.5621 22.7124 12.8105 23.3659 12.3203 23.6927C11.4216 24.281 10.1961 24.5261 7.9085 24.428C4.95098 24.3137 1.99346 23.8235 0.277778 23.2352V28.5293C0.735294 28.6437 1.37255 28.7744 2.1732 28.9215C4.05229 29.2483 6.48693 29.6731 10.2124 29.5588C13.8725 29.4607 16.7484 28.6437 18.5621 27.3039C20.3758 25.9476 21.0294 24.2973 21.1601 22.3202C21.1765 22.0261 21.1928 21.7483 21.1928 21.4869C21.1928 19.7222 20.7516 18.5947 20.098 17.647H20.1144Z" fill="#3B4951"/>
<path d="M32.696 24.9837C31.7157 24.6405 30.9313 24.183 30.3431 23.2026C29.7549 22.2222 29.8856 21.0294 29.8856 21.0294H40.5555C40.9967 21.0294 42.3692 20.8334 42.2385 19.183C42.1568 18.1373 41.9771 16.9445 41.6013 15.8007C41.013 14.036 40.1797 12.8105 38.3987 11.683C36.9444 10.7517 34.7712 10.2451 32.8758 10.2451C30.7353 10.2451 28.7418 10.7843 27.3856 11.4052C26.0294 12.0425 25.1143 12.8432 24.4771 13.7255C23.1862 15.4902 22.9248 17.7778 22.9248 19.7549C22.9248 20.1471 22.9248 20.5229 22.9411 20.8824C22.9902 22.5 23.5294 24.5262 24.8366 26.1765C26.1601 27.8105 28.2353 29.1667 31.6993 29.4771C32.6797 29.5588 33.6111 29.5915 34.4771 29.5915C37.8431 29.5915 39.6732 29.0523 40.8496 28.7092V24.7549C39.6732 25.1307 38.4967 25.4739 36.0621 25.4739C34.8039 25.4739 33.6928 25.3432 32.7124 25L32.696 24.9837ZM30.1143 16.2092C30.2451 15.6863 30.4902 15.0817 31.0947 14.5752C31.4869 14.2484 32.0751 14.0033 32.7287 13.9543C32.8104 13.9543 32.8921 13.9543 32.9738 13.9543C33.5947 13.9543 34.1666 14.1177 34.5915 14.4118C35.0163 14.6896 35.2941 15.0654 35.4575 15.4085C35.8006 16.1111 35.7516 17.7778 35.7516 17.7778H30C30 17.7778 29.9673 16.732 30.098 16.2092H30.1143Z" fill="#3B4951"/>
<path d="M61.5685 3.57837H53.0882C51.6502 3.62739 51.0293 4.60778 50.7842 5.17968L50.6535 5.57183L42.647 29.1012H50.1796L51.8627 23.0228H60.6862L62.4836 29.1012H70.4084L61.5849 3.59471L61.5685 3.57837ZM52.8431 18.3006L55.8659 9.01955V8.97053C55.9149 8.87249 56.0457 8.64373 56.3561 8.64373C56.6666 8.64373 56.7646 8.83981 56.8136 8.95419L59.8202 18.3006H52.8594H52.8431Z" fill="#3B4951"/>
<path d="M89.1994 3.57837C87.2877 3.57837 87.0753 5.03262 87.0589 5.52281V13.2843H79.5262V3.57837H74.0524C72.157 3.57837 71.9282 5.03262 71.9119 5.52281V29.0849H79.5426V18.9705H87.0753V29.0849H94.6896V3.57837H89.2158H89.1994Z" fill="#3B4951"/>
<path d="M24.0522 3.26797L31.7156 7.54902C32.0588 7.7451 32.4673 7.85948 32.8921 7.85948C33.3169 7.85948 33.7254 7.7451 34.0686 7.54902L40.8333 3.70915C41.2908 3.43137 41.4379 2.84314 41.1764 2.36928L39.8366 0L34.0686 3.25163C33.7254 3.44771 33.3169 3.56209 32.8921 3.56209C32.4673 3.56209 32.0588 3.44771 31.7156 3.25163L26.732 0.457516C26.2745 0.196078 25.7026 0.343137 25.4411 0.816993L24.0522 3.26797Z" fill="#E54E2B"/>
<path d="M157.075 14.5098H153.726V16.7647H157.075V29.1013H159.706V8.6438H157.075V14.5098Z" fill="#3B4951"/>
<path d="M163.856 8.6438H161.226V29.1013H163.856V8.6438Z" fill="#3B4951"/>
<path d="M140.147 15.4249V8.67651H137.451V29.1013H140.147V17.6961H143.448V15.4412H140.147V15.4249ZM129.902 9.47717C125.899 9.47717 123.448 12.5817 123.448 16.4706C123.448 21.1112 125.817 23.219 129.412 23.219C133.333 23.219 135.899 20.1144 135.899 16.1275C135.899 11.3889 133.284 9.49351 129.902 9.47717ZM129.69 21.0131C127.386 21.0131 126.144 19.3628 126.144 16.2255C126.144 13.0393 127.876 11.6667 129.69 11.6667C132.026 11.6667 133.17 13.317 133.186 16.2582C133.186 19.5589 131.552 20.9968 129.69 21.0131Z" fill="#3B4951"/>
<path d="M113.644 13.8726H110.278V16.1275H113.644V29.1013H116.275V8.67651H113.644V13.8726ZM117.794 8.67651V29.1013H120.425V8.67651H117.794ZM107.843 15.4249C108.66 13.0229 108.693 9.67325 108.693 9.67325H106.013V9.9837C106.013 11.1765 105.784 17.3693 101.062 21.4543L100.964 21.536L102.811 23.2353L102.876 23.1863C102.876 23.1863 105.016 21.5523 106.699 18.2517C108.35 20.9478 111.013 22.9085 111.013 22.9085L111.095 22.9739L112.68 20.9641C112.68 20.9641 109.722 18.9706 107.843 15.4412V15.4249Z" fill="#3B4951"/>
<path d="M146.03 9.41187V19.3302C146.03 20.0001 146.079 20.5557 146.16 21.0132C146.258 21.4707 146.438 21.8465 146.699 22.1406C146.977 22.4184 147.353 22.6308 147.827 22.7452C148.317 22.8759 148.954 22.9249 149.755 22.9249H153.66C154.02 22.9249 155 22.7452 155 21.536V9.41187H146.013H146.03ZM152.353 20.0328C152.353 20.6047 151.912 20.6374 151.912 20.6374H149.837C149.559 20.6374 149.347 20.621 149.183 20.572C149.02 20.523 148.889 20.4413 148.824 20.3269C148.742 20.2125 148.693 20.0328 148.677 19.8367C148.66 19.6243 148.644 19.3628 148.644 19.0197V11.7485H152.369V20.0164L152.353 20.0328Z" fill="#3B4951"/>
<path d="M174.412 27.6961C174.101 27.6961 173.905 27.6308 173.856 27.5654C173.774 27.4837 173.725 27.3203 173.725 27.0425V26.4216H182.974V20.8334H171.029V23.0229H180.278V24.2484H171.029V27.7615C171.029 27.7615 171.029 27.8105 171.029 27.8432C171.029 28.5458 171.242 29.1014 171.667 29.4445C172.108 29.804 172.68 29.9837 173.382 29.9837H183.17V27.6798H174.428L174.412 27.6961ZM182.974 8.67651H180.278V19.7223H182.974V8.67651ZM178.513 16.9772H170.833C170.556 16.9772 170.343 16.9608 170.18 16.9118C170.016 16.8628 169.886 16.7811 169.82 16.6667C169.755 16.5523 169.69 16.3889 169.673 16.1765C169.64 15.9641 169.64 15.6863 169.64 15.3595V15.2778H177.402V13.1046H169.64V11.5033H177.402V9.33011H167.026V15.6863C167.026 16.3563 167.075 16.9118 167.157 17.3693C167.255 17.8268 167.435 18.2027 167.696 18.4968C167.974 18.7909 168.35 18.987 168.84 19.1013C169.33 19.2157 169.967 19.2811 170.768 19.2811H178.513V16.9935V16.9772Z" fill="#3B4951"/>
<path d="M185.833 12.696H181.879V14.9183H185.833V12.696Z" fill="#3B4951"/>
</g>
<defs>
<clipPath id="clip0_5036_594">
<rect width="185.817" height="30" fill="white"/>
</clipPath>
</defs>
</svg>
