<svg width="204" height="30" viewBox="0 0 204 30" fill="none" xmlns="http://www.w3.org/2000/svg">
<g clip-path="url(#clip0_5036_473)">
<path d="M19.9353 17.4757C19.288 16.5372 18.3657 15.7605 16.6667 15.097C15.5178 14.644 14.822 14.4498 13.479 14.0614C12.2492 13.7054 10.3236 13.4142 8.38188 12.3139C7.97735 12.0873 7.37864 11.5048 7.37864 10.7766C7.37864 10.4045 7.37864 9.5145 8.80259 8.78635C9.69256 8.34946 11.068 8.10674 12.2654 8.05819C12.5566 8.05819 12.8317 8.04201 13.0906 8.04201C15.8414 8.04201 18.123 8.54363 19.5631 8.96434V5.2912C19.5631 3.93198 18.5437 3.62454 18.2848 3.55981C15.6311 3.07438 12.1197 2.81548 9.02913 3.20383C7.21683 3.43036 5.50162 3.81871 4.04531 4.49832C2.589 5.19412 1.52104 6.11645 0.857605 7.2815C0.404531 8.07438 0.113269 8.99671 0.0323625 10.1294C0.0161812 10.4045 0 10.6634 0 10.9223C0 12.2006 0.2589 13.1876 0.66343 14.0129C1.06796 14.8381 1.6343 15.5663 2.3301 16.1164C3.72168 17.233 5.35599 17.8964 7.00647 18.3333C8.39806 18.6893 11.1974 19.4498 11.9903 19.8867C12.7832 20.3236 13.1392 20.7443 13.2362 21.3268C13.4466 22.508 12.7023 23.1553 12.2006 23.4789C11.3107 24.0452 10.0971 24.3041 7.83172 24.2071C4.90291 24.0938 1.95793 23.5922 0.2589 23.0258V28.2685C0.711974 28.3818 1.34304 28.5113 2.13592 28.6407C3.99676 28.9643 6.40777 29.3851 10.0971 29.288C13.7217 29.1909 16.5858 28.3818 18.3819 27.0388C20.178 25.6957 20.8414 24.0614 20.9709 22.0873C20.9871 21.7961 21.0032 21.521 21.0032 21.2621C21.0032 19.5145 20.5663 18.398 19.9191 17.4595L19.9353 17.4757Z" fill="#3B4951"/>
<path d="M32.4111 24.7736C31.4402 24.4338 30.6635 23.9807 30.081 23.0098C29.4984 22.0228 29.6279 20.8577 29.6279 20.8577H40.1942C40.6311 20.8415 41.9904 20.6636 41.8609 19.0292C41.78 17.9775 41.602 16.7962 41.2298 15.6636C40.6473 13.9322 39.8221 12.7024 38.0583 11.5697C36.6182 10.6474 34.4661 10.1458 32.5891 10.1458C30.4693 10.1458 28.4952 10.6636 27.136 11.2946C25.7929 11.9257 24.8868 12.7186 24.2557 13.5924C22.9936 15.3399 22.7185 17.6053 22.7185 19.5632C22.7185 19.9516 22.7185 20.3237 22.7347 20.6636C22.7832 22.2817 23.3172 24.2881 24.6279 25.9063C25.9386 27.5244 27.9936 28.8674 31.424 29.1749C32.3949 29.2558 33.3172 29.2881 34.1748 29.2881C37.5082 29.2881 39.3366 28.738 40.4855 28.4144V24.4985C39.3204 24.8707 38.1392 25.2105 35.7444 25.2105C34.4984 25.2105 33.3981 25.081 32.4272 24.7412L32.4111 24.7736ZM29.8544 16.0843C29.9839 15.5826 30.2266 14.9678 30.8253 14.4661C31.2136 14.1425 31.7962 13.8836 32.4434 13.8513C32.5243 13.8513 32.6052 13.8513 32.6861 13.8513C33.301 13.8513 33.8674 14.0131 34.2881 14.3043C34.7088 14.5794 34.9839 14.9516 35.1457 15.2914C35.4855 15.9872 35.437 17.6538 35.437 17.6538H29.7412C29.7412 17.6538 29.7088 16.6182 29.8382 16.1004L29.8544 16.0843Z" fill="#3B4951"/>
<path d="M61.0033 3.5437H52.9451C52.9451 3.5437 52.8642 3.5437 52.8156 3.5437H52.6053C51.1813 3.59224 50.5664 4.56312 50.3237 5.12946L50.1943 5.51781L42.2493 28.835H49.725L51.3917 22.8155H60.1295L61.9095 28.835H69.7735L61.0195 3.55988L61.0033 3.5437ZM52.3625 18.1392L55.3561 8.94823V8.89969C55.4046 8.8026 55.5179 8.59224 55.8415 8.59224C56.1328 8.59224 56.246 8.78642 56.2946 8.88351L59.2719 18.1392H52.3625Z" fill="#3B4951"/>
<path d="M88.3981 3.5437C86.5211 3.5437 86.2946 4.98383 86.2784 5.46927V13.1554H78.8188V3.5437H73.3981C71.5049 3.5437 71.2946 4.98383 71.2622 5.46927V28.835H78.8188V18.8188H86.2784V28.835H93.835V3.5437H88.3981Z" fill="#3B4951"/>
<path d="M23.835 3.23625L31.4401 7.49191C31.7799 7.68608 32.1845 7.79935 32.6052 7.79935C33.0259 7.79935 33.4304 7.68608 33.7702 7.49191L40.4693 3.68932C40.9223 3.43042 41.068 2.83172 40.8091 2.36246L39.4822 0L33.7702 3.22006C33.4143 3.41424 33.0259 3.52751 32.6052 3.52751C32.1845 3.52751 31.7799 3.41424 31.4401 3.22006L26.5049 0.453074C26.0518 0.194175 25.4854 0.339806 25.2265 0.809061L23.8511 3.23625H23.835Z" fill="#E54E2B"/>
<path d="M162.039 19.0292V21.2622H143.608V19.0292H162.039ZM157.104 26.1004C157.104 25.5664 157.023 25.2266 156.877 25.0648C156.731 24.903 156.392 24.8221 155.89 24.8221H145.971V22.5729H155.89C156.65 22.5729 157.265 22.6214 157.751 22.7185C158.236 22.8156 158.625 23.0098 158.916 23.2687C159.207 23.5276 159.417 23.8997 159.547 24.3528C159.66 24.8059 159.725 25.3884 159.725 26.1004V29.5955H157.12V26.0842L157.104 26.1004ZM159.628 15.4531V17.6538H148.981C147.977 17.6538 147.233 17.4111 146.748 16.9418C146.262 16.4725 146.019 15.712 146.019 14.6764V8.59229H159.628V10.8253H148.657V12.0227H159.628V14.2072H148.657V14.5955C148.657 14.9515 148.722 15.178 148.883 15.2913C149.045 15.4208 149.256 15.4693 149.531 15.4693H159.628V15.4531Z" fill="#3B4951"/>
<path d="M182.314 20.9062V23.1716H174.401V28.8027H171.715V23.1716H163.867V20.9062H182.314Z" fill="#3B4951"/>
<path d="M138.9 15.2751V8.59229H136.23V28.8188H138.9V17.5081H142.168V15.259H138.9V15.2751ZM128.738 9.38517C124.773 9.38517 122.33 12.4758 122.33 16.3107C122.33 20.9062 124.676 22.9936 128.236 22.9936C132.12 22.9936 134.66 19.9191 134.676 15.9709C134.676 11.2622 132.087 9.38517 128.738 9.38517ZM128.527 20.8091C126.246 20.8091 125.016 19.1748 125 16.0842C125 12.9127 126.715 11.5534 128.527 11.5534C130.841 11.5534 131.99 13.1878 131.99 16.1004C131.99 19.369 130.372 20.8091 128.527 20.8091Z" fill="#3B4951"/>
<path d="M112.621 13.7217H109.288V15.9709H112.621V28.8188H115.227V8.59229H112.621V13.7217ZM116.731 8.59229V28.8188H119.337V8.59229H116.731ZM106.877 15.2751C107.686 12.8965 107.718 9.57934 107.718 9.57934H105.065V9.88678C105.065 11.068 104.838 17.2169 100.162 21.246L100.065 21.3269L101.893 23.0098L101.958 22.9612C101.958 22.9612 104.094 21.3431 105.744 18.0583C107.379 20.7282 110.016 22.67 110.016 22.67L110.097 22.7347L111.667 20.7282C111.667 20.7282 108.738 18.7541 106.861 15.259L106.877 15.2751Z" fill="#3B4951"/>
<path d="M193.9 11.5696C193.9 11.4077 193.9 11.2621 193.884 11.1327C193.851 10.7929 193.754 10.4854 193.576 10.2427C193.398 9.99998 193.155 9.8058 192.832 9.67635C192.508 9.5469 192.087 9.48218 191.57 9.48218H184.66V11.7637H190.324C190.583 11.7637 190.825 11.7961 190.906 11.877C191.003 12.0226 190.922 12.3463 190.922 12.3463C190.032 16.4886 183.948 19.5307 183.948 19.5307L185.599 21.2621C193.932 17.1359 193.884 11.5857 193.884 11.5857L193.9 11.5696Z" fill="#3B4951"/>
<path d="M199.838 12.9612V8.59229H197.168V19.6764H199.838V15.1942H203.107V12.9612H199.838Z" fill="#3B4951"/>
<path d="M194.628 20.0325C191.197 20.0325 189.078 22.2817 189.078 25.0972C189.078 28.4629 191.133 29.9839 194.207 30.0001C197.557 30.0001 199.773 27.7509 199.773 24.8545C199.773 21.4079 197.508 20.0325 194.628 20.0325ZM194.45 27.8804C192.638 27.8804 191.715 26.8609 191.699 24.9354C191.699 22.9775 193.026 22.136 194.45 22.1198C196.278 22.136 197.152 23.1393 197.152 24.9516C197.152 26.9904 195.906 27.8642 194.45 27.8804Z" fill="#3B4951"/>
<path d="M181.731 17.5566C180.955 17.2654 177.136 15.7443 174.175 12.4757C174.175 12.4757 175 10.9385 175.308 9.12622H172.557C171.165 15.1133 164.628 17.7023 164.628 17.7023L166.181 19.7087C170.599 17.8317 172.767 14.6278 172.767 14.6278C175.955 17.8803 179.466 19.3204 180.275 19.6278L181.731 17.5566Z" fill="#3B4951"/>
</g>
<defs>
<clipPath id="clip0_5036_473">
<rect width="203.107" height="30" fill="white"/>
</clipPath>
</defs>
</svg>
