<svg width="204" height="30" viewBox="0 0 204 30" fill="none" xmlns="http://www.w3.org/2000/svg">
<g clip-path="url(#clip0_5036_551)">
<mask id="mask0_5036_551" style="mask-type:luminance" maskUnits="userSpaceOnUse" x="0" y="0" width="204" height="30">
<path d="M0 0.000818253H203.177V30H0V0.000818253Z" fill="white"/>
</mask>
<g mask="url(#mask0_5036_551)">
<path d="M20.1108 17.6436C19.4578 16.6935 18.5207 15.9131 16.8082 15.2389C15.6426 14.7769 14.9536 14.5843 13.584 14.1925C12.3449 13.8382 10.3956 13.5362 8.43988 12.431C8.02686 12.1975 7.43425 11.6212 7.43425 10.8882C7.43425 10.5079 7.42772 9.60998 8.8725 8.88515C9.76223 8.4362 11.1531 8.20602 12.3628 8.15541C12.6502 8.14561 12.926 8.13908 13.1987 8.13908C15.9821 8.14235 18.2709 8.637 19.7271 9.06146V5.33768C19.7271 3.97126 18.7003 3.64802 18.4391 3.59088C15.7585 3.10766 12.211 2.83502 9.10432 3.22683C7.27426 3.46028 5.54543 3.84066 4.08106 4.53611C2.61016 5.2332 1.54085 6.1621 0.866624 7.35384C0.412784 8.15051 0.120563 9.08595 0.032407 10.2287C0.0111842 10.5046 -0.000244141 10.7723 -0.000244141 11.027C-0.000244141 12.3134 0.260959 13.3125 0.665824 14.137C1.07885 14.9598 1.65023 15.7058 2.35385 16.2658C3.75945 17.3857 5.40013 18.0583 7.08 18.4991C8.48723 18.8664 11.3131 19.6353 12.1098 20.0712C12.9065 20.5038 13.2656 20.938 13.3652 21.5208C13.5742 22.7159 12.8199 23.3754 12.3269 23.6921C11.4323 24.27 10.2046 24.5312 7.91748 24.4349C4.96425 24.3125 1.9947 23.8194 0.278918 23.2497V28.5342C0.736023 28.6501 1.36944 28.7807 2.1808 28.9194C4.06636 29.2427 6.49229 29.6688 10.2177 29.5659C13.8729 29.4631 16.7576 28.6533 18.5729 27.3049C20.3899 25.945 21.0495 24.3027 21.1784 22.3126C21.198 22.0237 21.2029 21.7461 21.2029 21.4817C21.198 19.7234 20.7605 18.5937 20.1108 17.6436Z" fill="#3B4951"/>
<path d="M30.1145 16.2173C30.25 15.7047 30.4883 15.0876 31.0858 14.5848C31.4825 14.2485 32.067 14.002 32.7216 13.9661C32.8 13.9628 32.8832 13.9563 32.9649 13.9563C33.5836 13.9547 34.1615 14.1261 34.5827 14.4101C35.012 14.6958 35.2814 15.0582 35.4561 15.4092C35.8054 16.1112 35.7516 17.7845 35.7516 17.7845H30.0084C30.0084 17.7845 29.9822 16.7316 30.1145 16.2173ZM32.702 24.9905C31.7274 24.6509 30.9373 24.1971 30.3545 23.2078C29.7684 22.2201 29.8941 21.0365 29.8941 21.0365H40.5577C41.0001 21.0202 42.3698 20.839 42.2376 19.1901C42.1592 18.1388 41.9796 16.9454 41.5976 15.801C41.0083 14.0444 40.1724 12.8168 38.3962 11.6773C36.9449 10.7435 34.7639 10.2358 32.8767 10.2358C30.7332 10.2358 28.7448 10.768 27.3767 11.3932C26.0152 12.0234 25.1075 12.8266 24.4611 13.7163C23.1812 15.4827 22.9118 17.7682 22.9183 19.7452C22.9183 20.1354 22.9249 20.5092 22.9379 20.8651C22.9902 22.4895 23.5305 24.5171 24.8398 26.161C26.1572 27.7968 28.2354 29.1534 31.6948 29.4636C32.6759 29.5468 33.6015 29.5828 34.4651 29.5828C37.8298 29.5828 39.6696 29.0359 40.832 28.7012V24.7505C39.6582 25.1178 38.4713 25.4704 36.0503 25.4688C34.7998 25.4672 33.6815 25.3366 32.702 24.9905Z" fill="#3B4951"/>
<path d="M52.8383 18.3056L55.8617 9.02798L55.8748 8.98227C55.9123 8.88758 56.0331 8.65903 56.3449 8.65903C56.6404 8.65903 56.7612 8.86309 56.802 8.96757L59.8042 18.3056H52.8383ZM61.5625 3.57699H53.4146L53.4227 3.58026C53.377 3.57699 53.3346 3.57699 53.2905 3.57699H53.0783C51.6384 3.6227 51.0147 4.60711 50.7748 5.17033L50.6425 5.55724L42.6301 29.0884H50.1691L51.8473 23.0072H60.6678L62.4636 29.0884H70.396L61.5625 3.57699Z" fill="#3B4951"/>
<path d="M89.1978 3.577C87.2959 3.577 87.0739 5.02504 87.0543 5.51643V13.284H79.5234V3.577H74.0463C72.1428 3.577 71.9192 5.02504 71.8979 5.51643V29.0884H79.5234V18.9798H87.0543V29.0884H94.6765V3.577H89.1978Z" fill="#3B4951"/>
<path d="M24.0525 3.26163L31.7237 7.54863C32.0731 7.74617 32.4747 7.85718 32.904 7.85718C33.3301 7.85718 33.7333 7.74617 34.0843 7.54863L40.8495 3.71221C41.3001 3.44121 41.4503 2.84208 41.1923 2.37844L39.8536 -0.000139236L34.0843 3.24857C33.7333 3.44448 33.3301 3.55875 32.904 3.55875C32.4747 3.55875 32.0731 3.44448 31.7237 3.24857L26.738 0.453701C26.2858 0.189233 25.7079 0.347588 25.4434 0.812856L24.0525 3.26163Z" fill="#E54E2B"/>
<path d="M129.703 21.0333C127.393 21.0235 126.162 19.3844 126.15 16.2565C126.16 13.0666 127.881 11.6936 129.703 11.6887C132.039 11.6936 133.19 13.3343 133.203 16.2827C133.19 19.582 131.572 21.0251 129.703 21.0333ZM129.913 9.4979C125.91 9.50933 123.455 12.6111 123.452 16.4932C123.455 21.1231 125.82 23.2356 129.414 23.2437C133.338 23.2356 135.898 20.1321 135.905 16.1488C135.898 11.4063 133.291 9.50933 129.913 9.4979ZM140.164 15.4403V8.6947H137.465V29.1143H140.164V17.7046H143.468V15.4403H140.164Z" fill="#3B4951"/>
<path d="M107.853 15.4464C108.663 13.0466 108.7 9.6983 108.7 9.6983H106.02L106.03 9.81258V10.0134C106.031 11.2051 105.79 17.4022 101.067 21.4769L100.975 21.5586L102.823 23.2629L102.89 23.2074C102.902 23.2025 105.039 21.5765 106.719 18.2658C108.369 20.9594 111.03 22.9168 111.037 22.9217L111.117 22.9821L112.697 20.966C112.697 20.966 109.735 18.9678 107.853 15.4464ZM117.802 29.1106H120.433V8.6943H117.802V29.1106ZM113.649 13.8776H110.277V16.1435H113.649V29.1106H116.279V8.6943H113.649V13.8776Z" fill="#3B4951"/>
<path d="M184.755 18.2341C183.965 17.9419 180.12 16.4008 177.128 13.1031C177.128 13.1031 177.96 11.5538 178.279 9.72213H175.507C174.099 15.7592 167.509 18.3745 167.509 18.3745L169.073 20.4037C173.526 18.5067 175.712 15.2841 175.712 15.2841C178.922 18.572 182.474 20.0233 183.287 20.327L184.755 18.2341ZM166.665 25.8694H185.555V23.5675H166.665V25.8694Z" fill="#3B4951"/>
<path d="M161.203 29.0941H163.827V8.67778H161.203V29.0941ZM157.057 15.0609H153.69V17.3187H157.057V29.0957H159.68V8.67941H157.057V15.0609Z" fill="#3B4951"/>
<path d="M152.789 20.0433C152.789 20.6196 152.338 20.6441 152.338 20.6441H150.113C149.844 20.6441 149.623 20.6245 149.46 20.5771C149.292 20.533 149.171 20.4482 149.094 20.3273C149.019 20.2065 148.968 20.04 148.947 19.8311C148.924 19.6188 148.913 19.3446 148.913 19.0132V16.3587H152.789V20.0433ZM155.44 8.98786H152.789V14.0895H148.913V8.98786H146.304V19.3299C146.304 19.9943 146.35 20.5575 146.441 21.0212C146.533 21.4815 146.712 21.857 146.983 22.1427C147.256 22.43 147.633 22.6374 148.12 22.7565C148.603 22.879 149.244 22.9377 150.049 22.9377H154.106C154.468 22.9377 155.44 22.7516 155.44 21.5583V8.98786Z" fill="#3B4951"/>
<path d="M198.531 16.9828H190.861C190.59 16.9828 190.368 16.9599 190.2 16.9126C190.035 16.8685 189.914 16.7852 189.843 16.6644C189.763 16.5404 189.712 16.3755 189.694 16.1649C189.668 15.9527 189.66 15.6784 189.66 15.3454V15.2621H197.421V13.086H189.66V11.4861H197.421V9.31157H189.66H187.049V15.6653C187.049 16.3281 187.093 16.893 187.183 17.355C187.275 17.817 187.457 18.1892 187.727 18.4782C188.001 18.7655 188.377 18.9679 188.863 19.0887C189.346 19.2095 189.993 19.2699 190.793 19.2699H198.531V16.9828ZM202.994 8.68468H200.305V19.7221H202.994V8.68468ZM194.432 27.7003C194.115 27.7003 193.93 27.6382 193.872 27.5664C193.8 27.4864 193.751 27.3134 193.751 27.0456V26.4236H202.994V20.829H191.052V23.0231H200.302V24.2508H191.052V27.7639C191.049 27.795 191.049 27.8211 191.049 27.8537C191.049 28.5655 191.256 29.1157 191.681 29.465C192.11 29.8258 192.691 30.0005 193.4 30.0005H203.177V27.7003H194.432Z" fill="#3B4951"/>
</g>
</g>
<defs>
<clipPath id="clip0_5036_551">
<rect width="203.177" height="30" fill="white"/>
</clipPath>
</defs>
</svg>
