<svg width="245" height="30" viewBox="0 0 245 30" fill="none" xmlns="http://www.w3.org/2000/svg">
<g clip-path="url(#clip0_5036_453)">
<path d="M20.1043 17.636C19.4505 16.6883 18.5122 15.9082 16.8032 15.2337C15.635 14.7721 14.9473 14.578 13.5794 14.1861C12.3396 13.8319 10.3932 13.5304 8.43557 12.4281C8.02293 12.1945 7.4313 11.616 7.4313 10.8831C7.4313 10.5044 7.42188 9.60751 8.86705 8.88021C9.75827 8.43366 11.1488 8.2019 12.3566 8.15292C12.643 8.1435 12.9218 8.13784 13.195 8.13784C15.9761 8.14161 18.2654 8.63527 19.72 9.05921V5.33794C19.72 3.97002 18.6931 3.64783 18.4331 3.58753C15.7519 3.10707 12.2058 2.83763 9.10068 3.22577C7.26926 3.45753 5.54334 3.84002 4.08121 4.53528C2.60967 5.23243 1.54133 6.15945 0.866794 7.35025C0.41459 8.14726 0.122541 9.08182 0.0339843 10.2274C0.00948987 10.5025 0.00195312 10.7682 0.00195312 11.0225C0.00195312 12.3113 0.258202 13.3099 0.667071 14.1314C1.07782 14.9548 1.65438 15.6991 2.3553 16.2606C3.75525 17.3798 5.40014 18.0543 7.07895 18.4933C8.48644 18.8589 11.3108 19.6295 12.106 20.0666C12.9011 20.4981 13.2628 20.9371 13.3646 21.5156C13.57 22.7082 12.8163 23.3696 12.3245 23.688C11.4295 24.2646 10.2029 24.5227 7.91742 24.4285C4.9649 24.306 1.99542 23.8124 0.280813 23.2434V28.5285C0.736785 28.6397 1.36987 28.7753 2.18196 28.9148C4.06426 29.2332 6.49109 29.6628 10.2161 29.5591C13.8696 29.4555 16.7524 28.6491 18.5668 27.2981C20.3832 25.9396 21.0408 24.2966 21.1689 22.3069C21.1877 22.0205 21.1953 21.7417 21.1953 21.4779C21.1896 19.7218 20.7544 18.5894 20.1043 17.6379V17.636Z" fill="#3F464C"/>
<path d="M32.687 24.9823C31.7148 24.6432 30.9272 24.1853 30.3393 23.1999C29.7552 22.2126 29.8796 21.0274 29.8796 21.0274H40.5403C40.9812 21.0142 42.351 20.8315 42.2191 19.1847C42.1418 18.1314 41.9591 16.9406 41.5785 15.7969C40.9887 14.0427 40.1559 12.8142 38.3772 11.6724C36.9264 10.7416 34.7464 10.2329 32.8603 10.2329C30.7161 10.2329 28.7302 10.7643 27.3642 11.3898C26 12.0191 25.0956 12.8218 24.4512 13.7111C23.17 15.4747 22.9024 17.7621 22.9043 19.7386C22.9043 20.1305 22.9118 20.5055 22.925 20.8616C22.9797 22.4839 23.5186 24.5094 24.8281 26.1543C26.1432 27.7916 28.2196 29.1464 31.6808 29.4554C32.6625 29.5402 33.5858 29.576 34.4506 29.576C37.8139 29.576 39.6509 29.0314 40.8154 28.696V24.7468C39.6378 25.1142 38.4545 25.4665 36.0333 25.4628C34.7822 25.4628 33.6649 25.3309 32.6851 24.9861L32.687 24.9823ZM30.1 16.2114C30.2357 15.697 30.475 15.0828 31.0741 14.5778C31.4698 14.2443 32.0539 13.9975 32.7058 13.9598C32.7887 13.9561 32.8698 13.9523 32.9489 13.9523C33.5688 13.9466 34.1472 14.1181 34.5693 14.4064C34.997 14.6909 35.2664 15.0527 35.4417 15.4031C35.7884 16.1059 35.7375 17.7753 35.7375 17.7753H29.9964C29.9964 17.7753 29.9681 16.7258 30.1 16.2114Z" fill="#3F464C"/>
<path d="M61.5394 3.57422H53.3941L53.3998 3.57987C53.3545 3.5761 53.3131 3.5761 53.2679 3.57422H53.0587C51.6192 3.62132 50.9936 4.60298 50.7525 5.16636L50.6206 5.55261L42.6128 29.0767H50.1476L51.8265 22.9964H60.6444L62.4401 29.0767H70.3668L61.5394 3.57422ZM52.8175 18.2991L55.8398 9.02705L55.8548 8.97806C55.8925 8.88197 56.0112 8.65775 56.324 8.65775C56.6198 8.65775 56.7385 8.86124 56.78 8.96487L59.7834 18.2991H52.8194H52.8175Z" fill="#3F464C"/>
<path d="M89.1634 3.57422C87.2604 3.57422 87.0399 5.02127 87.0192 5.51493V13.2759H79.49V3.57422H74.0164C72.1134 3.57422 71.8911 5.02127 71.8704 5.51493V29.0786H79.4919V18.9737H87.0211V29.0786H94.6389V3.57422H89.1653H89.1634Z" fill="#3F464C"/>
<path d="M24.0422 3.26152L31.7109 7.54616C32.0613 7.74212 32.4627 7.85328 32.8904 7.85328C33.3181 7.85328 33.7194 7.74212 34.0699 7.54428L40.8322 3.70996C41.2825 3.43864 41.437 2.84135 41.177 2.37596L39.8392 0L34.0699 3.24645C33.7194 3.44241 33.3162 3.55546 32.8904 3.55546C32.4645 3.55546 32.0613 3.44429 31.7109 3.24834L26.7272 0.454089C26.2731 0.188419 25.6966 0.34669 25.4347 0.812084L24.0422 3.26152Z" fill="#E24719"/>
<path d="M229.398 18.7061C229.88 18.5724 230.398 18.4103 230.956 18.2219C231.512 18.0391 232.077 17.8413 232.637 17.6303C233.206 17.4249 233.765 17.1988 234.304 16.9576C234.786 16.7485 235.239 16.5337 235.659 16.3264C236.064 16.4998 236.529 16.6938 237.068 16.9067C237.686 17.1536 238.316 17.3947 238.96 17.6284C239.604 17.8677 240.23 18.09 240.829 18.286C241.434 18.4951 241.954 18.6383 242.391 18.7306L242.698 18.7985L243.638 16.56L243.192 16.4583C242.885 16.3829 242.491 16.2793 242.027 16.1361C241.56 15.9891 241.066 15.8252 240.56 15.6481C240.04 15.4729 239.527 15.2939 239.001 15.0942C238.768 15.0131 238.542 14.9265 238.333 14.8473C238.412 14.7964 238.491 14.7399 238.564 14.6872C238.875 14.4743 239.158 14.2557 239.422 14.0315C239.697 13.8167 239.936 13.583 240.147 13.3475C240.352 13.1101 240.531 12.8878 240.667 12.6673C240.846 12.3659 240.955 12.0437 240.974 11.7064C240.978 11.648 240.985 11.6084 240.985 11.5594C240.985 11.2655 240.908 10.9716 240.763 10.7172C240.582 10.4138 240.305 10.1708 239.947 9.99366C239.569 9.80147 239.109 9.72234 238.566 9.72234H229.754V12.0097H237.993C238.023 12.0097 238.061 12.0097 238.091 12.0116C238.048 12.0474 238.001 12.087 237.954 12.1341C237.494 12.5185 236.942 12.9028 236.296 13.2797C235.642 13.6622 234.915 14.039 234.112 14.3989C233.315 14.7644 232.45 15.1168 231.521 15.4653C230.592 15.8045 229.628 16.1191 228.616 16.3924L228.22 16.5073L229.06 18.7966L229.396 18.7024L229.398 18.7061ZM244.567 20.3002V22.5932H237.074V28.9486H234.602V22.5932H226.928V20.3002H244.567ZM217.712 23.2772C217.557 23.1321 217.384 22.9682 217.194 22.7892C216.804 22.4255 216.395 22.0261 215.963 21.604C215.524 21.1782 215.099 20.7354 214.671 20.2775C214.247 19.8216 213.876 19.3939 213.563 18.9888C213.563 18.9888 211.377 21.4853 208.463 23.5221L206.752 21.8169C206.752 21.8169 211.575 18.3764 213.676 14.5741C214.077 13.8393 214.347 13.1987 214.482 12.6466C214.586 12.2283 214.42 12.021 213.989 12.021H207.784V9.75814H214.729C215.596 9.75814 216.22 9.94467 216.602 10.3177C216.979 10.6889 217.149 11.2617 217.103 12.0229C217.039 12.7521 216.84 13.5322 216.497 14.365C216.159 15.1921 215.702 16.0381 215.134 16.9049C215.353 17.2647 215.686 17.6793 216.118 18.1522C216.553 18.6232 217.004 19.0867 217.475 19.5446C217.946 19.9987 218.402 20.4226 218.839 20.8183C219.078 21.035 219.289 21.2159 219.47 21.3704L217.712 23.2791V23.2772ZM221.096 8.79155H223.717V28.9278H221.096V8.79155ZM140.082 15.4465V8.70299H137.385V29.1144H140.082V17.7094H143.387V15.4465H140.082ZM129.837 9.50754C125.835 9.51508 123.382 12.6183 123.376 16.496C123.382 21.1273 125.747 23.2376 129.34 23.2451C133.261 23.2395 135.82 20.1343 135.827 16.1531C135.818 11.4106 133.214 9.51508 129.837 9.50754ZM129.624 21.035C127.314 21.0293 126.088 19.3882 126.075 16.2605C126.084 13.0705 127.806 11.6988 129.624 11.6932C131.961 11.6988 133.11 13.34 133.123 16.285C133.112 19.586 131.494 21.0293 129.624 21.035ZM113.577 13.8826H110.208V16.1474H113.577V29.1125H116.209V8.70299H113.577V13.8826ZM117.73 8.70299V29.1106H120.36V8.70299H117.73ZM107.785 15.4503C108.595 13.0536 108.631 9.70726 108.631 9.70726H105.953L105.961 9.81843V10.0182C105.961 11.209 105.722 17.4042 101.002 21.4797L100.909 21.5607L102.758 23.2621L102.828 23.2093C102.828 23.2093 104.974 21.5795 106.651 18.269C108.301 20.9596 110.962 22.9173 110.967 22.9229L111.048 22.9851L112.625 20.969C112.625 20.969 109.667 18.968 107.785 15.4484V15.4503ZM166.573 23.5711V25.8717H185.455V23.5711H166.573ZM184.656 18.2389C183.864 17.9468 180.023 16.4037 177.031 13.1101C177.031 13.1101 177.863 11.5594 178.182 9.72799H175.412C174.005 15.7649 167.417 18.3783 167.417 18.3783L168.979 20.4094C173.43 18.5121 175.617 15.2882 175.617 15.2882C178.824 18.5761 182.376 20.0269 183.188 20.3303L184.656 18.237V18.2389ZM156.968 15.0659H153.604V17.325H156.968V29.0974H159.59V8.68792H156.968V15.0659ZM161.113 8.68604V29.0955H163.738V8.68604H161.113ZM155.353 8.99316H152.702V14.0955H148.83V8.99316H146.222V19.3355C146.222 20.0006 146.267 20.5639 146.358 21.0256C146.45 21.4872 146.629 21.8603 146.901 22.1467C147.172 22.4331 147.549 22.6384 148.033 22.759C148.519 22.8796 149.16 22.9399 149.962 22.9399H154.017C154.379 22.9399 155.351 22.7552 155.351 21.5626V8.99316H155.353ZM152.702 20.0496C152.702 20.6242 152.253 20.6487 152.253 20.6487H150.03C149.759 20.6487 149.538 20.628 149.374 20.5828C149.207 20.5376 149.088 20.4528 149.009 20.3322C148.934 20.2116 148.885 20.0458 148.862 19.8348C148.837 19.6218 148.828 19.3505 148.828 19.017V16.3641H152.7V20.0496H152.702ZM195.151 27.7012C194.834 27.7012 194.65 27.6372 194.591 27.5656C194.52 27.4864 194.469 27.3131 194.471 27.0474V26.4256H203.711V20.8315H191.774V23.0266H201.02V24.2532H191.774V27.7672C191.771 27.7954 191.771 27.8256 191.771 27.8557C191.771 28.5661 191.976 29.1181 192.402 29.4667C192.831 29.8266 193.41 29.9999 194.12 29.9999H203.897V27.7012H195.153H195.151ZM203.711 8.69169H201.022V19.7274H203.711V8.69169ZM199.253 16.984H191.582C191.309 16.984 191.09 16.9633 190.924 16.9162C190.759 16.8691 190.638 16.788 190.563 16.6674C190.485 16.5469 190.436 16.381 190.416 16.1681C190.393 15.959 190.382 15.6839 190.382 15.3523V15.2675H198.141V13.095H190.382V11.4954H198.141V9.32101H190.382H187.776V15.6726C187.776 16.3377 187.819 16.9011 187.908 17.3608C188 17.8243 188.181 18.1955 188.452 18.4838C188.726 18.7721 189.103 18.9756 189.587 19.0943C190.071 19.2149 190.713 19.2752 191.516 19.2752H199.253V16.9859V16.984Z" fill="#3F464C"/>
</g>
<defs>
<clipPath id="clip0_5036_453">
<rect width="244.567" height="30" fill="white"/>
</clipPath>
</defs>
</svg>
